<svg width="162" height="48" viewBox="0 0 162 48" fill="none" xmlns="http://www.w3.org/2000/svg">
    <rect width="161.098" height="44" fill="#5B08C9" />
    <path
        d="M14.7687 14.6137C14.7213 13.2539 15.7808 12 17.2128 12H31.887C33.3191 12 34.3785 13.2539 34.3312 14.6137C34.2857 15.92 34.3448 17.612 34.7706 18.9917C35.1978 20.3756 35.9182 21.2503 37.098 21.3627V22.6373C35.9182 22.7497 35.1978 23.6244 34.7706 25.0083C34.3448 26.388 34.2857 28.08 34.3312 29.3863C34.3785 30.7461 33.3191 32 31.887 32H17.2128C15.7808 32 14.7213 30.7461 14.7687 29.3863C14.8142 28.08 14.7551 26.388 14.3292 25.0083C13.9021 23.6244 13.1799 22.7497 12 22.6373V21.3627C13.1799 21.2503 13.9021 20.3756 14.3292 18.9917C14.7551 17.612 14.8142 15.92 14.7687 14.6137Z"
        fill="url(#paint0_linear_386_45)" />
    <path
        d="M49.0981 27.6098V12H55.2643C56.3972 12 57.3422 12.1702 58.0992 12.5107C58.8561 12.8511 59.4251 13.3237 59.8061 13.9284C60.1871 14.5279 60.3776 15.219 60.3776 16.0015C60.3776 16.6113 60.2573 17.1474 60.0167 17.6098C59.776 18.0671 59.4452 18.4431 59.0241 18.7378C58.608 19.0274 58.1317 19.2332 57.5953 19.3552V19.5076C58.1819 19.533 58.7308 19.7007 59.2421 20.0107C59.7585 20.3206 60.1771 20.7551 60.4979 21.314C60.8188 21.8679 60.9792 22.5285 60.9792 23.2957C60.9792 24.124 60.7762 24.8633 60.3701 25.5137C59.969 26.159 59.375 26.6697 58.5879 27.0457C57.8009 27.4217 56.8308 27.6098 55.6778 27.6098H49.0981ZM52.3542 24.9116H55.0086C55.916 24.9116 56.5777 24.7363 56.9938 24.3857C57.4099 24.03 57.6179 23.5574 57.6179 22.968C57.6179 22.5361 57.5151 22.155 57.3096 21.8247C57.1041 21.4944 56.8108 21.2353 56.4298 21.0473C56.0538 20.8592 55.6051 20.7652 55.0838 20.7652H52.3542V24.9116ZM52.3542 18.532H54.768C55.2141 18.532 55.6102 18.4533 55.9561 18.2957C56.307 18.1331 56.5827 17.9045 56.7832 17.6098C56.9888 17.315 57.0915 16.9619 57.0915 16.5503C57.0915 15.9863 56.8935 15.5315 56.4975 15.186C56.1065 14.8404 55.55 14.6677 54.8281 14.6677H52.3542V18.532Z"
        fill="white" />
    <path
        d="M68.2563 27.8384C67.0883 27.8384 66.0781 27.5869 65.2259 27.0838C64.3787 26.5757 63.7245 25.8694 63.2633 24.9649C62.8021 24.0554 62.5715 23.001 62.5715 21.8018C62.5715 20.5925 62.8021 19.5356 63.2633 18.6311C63.7245 17.7215 64.3787 17.0152 65.2259 16.5122C66.0781 16.0041 67.0883 15.75 68.2563 15.75C69.4244 15.75 70.432 16.0041 71.2792 16.5122C72.1314 17.0152 72.7882 17.7215 73.2494 18.6311C73.7106 19.5356 73.9412 20.5925 73.9412 21.8018C73.9412 23.001 73.7106 24.0554 73.2494 24.9649C72.7882 25.8694 72.1314 26.5757 71.2792 27.0838C70.432 27.5869 69.4244 27.8384 68.2563 27.8384ZM68.2714 25.3232C68.8027 25.3232 69.2464 25.1707 69.6023 24.8659C69.9583 24.5559 70.2265 24.1341 70.4069 23.6006C70.5924 23.0671 70.6852 22.4599 70.6852 21.779C70.6852 21.0981 70.5924 20.4909 70.4069 19.9573C70.2265 19.4238 69.9583 19.002 69.6023 18.6921C69.2464 18.3821 68.8027 18.2271 68.2714 18.2271C67.735 18.2271 67.2838 18.3821 66.9178 18.6921C66.5569 19.002 66.2837 19.4238 66.0982 19.9573C65.9177 20.4909 65.8275 21.0981 65.8275 21.779C65.8275 22.4599 65.9177 23.0671 66.0982 23.6006C66.2837 24.1341 66.5569 24.5559 66.9178 24.8659C67.2838 25.1707 67.735 25.3232 68.2714 25.3232Z"
        fill="white" />
    <path
        d="M81.2427 27.8384C80.0747 27.8384 79.0646 27.5869 78.2123 27.0838C77.3651 26.5757 76.7109 25.8694 76.2497 24.9649C75.7885 24.0554 75.5579 23.001 75.5579 21.8018C75.5579 20.5925 75.7885 19.5356 76.2497 18.6311C76.7109 17.7215 77.3651 17.0152 78.2123 16.5122C79.0646 16.0041 80.0747 15.75 81.2427 15.75C82.4108 15.75 83.4184 16.0041 84.2656 16.5122C85.1179 17.0152 85.7746 17.7215 86.2358 18.6311C86.697 19.5356 86.9276 20.5925 86.9276 21.8018C86.9276 23.001 86.697 24.0554 86.2358 24.9649C85.7746 25.8694 85.1179 26.5757 84.2656 27.0838C83.4184 27.5869 82.4108 27.8384 81.2427 27.8384ZM81.2578 25.3232C81.7892 25.3232 82.2328 25.1707 82.5888 24.8659C82.9447 24.5559 83.2129 24.1341 83.3934 23.6006C83.5788 23.0671 83.6716 22.4599 83.6716 21.779C83.6716 21.0981 83.5788 20.4909 83.3934 19.9573C83.2129 19.4238 82.9447 19.002 82.5888 18.6921C82.2328 18.3821 81.7892 18.2271 81.2578 18.2271C80.7214 18.2271 80.2702 18.3821 79.9043 18.6921C79.5433 19.002 79.2701 19.4238 79.0846 19.9573C78.9041 20.4909 78.8139 21.0981 78.8139 21.779C78.8139 22.4599 78.9041 23.0671 79.0846 23.6006C79.2701 24.1341 79.5433 24.5559 79.9043 24.8659C80.2702 25.1707 80.7214 25.3232 81.2578 25.3232Z"
        fill="white" />
    <path
        d="M95.1541 15.9024V18.3415H88.1984V15.9024H95.1541ZM89.7775 13.0976H92.9809V24.0122C92.9809 24.312 93.026 24.5457 93.1163 24.7134C93.2065 24.876 93.3318 24.9903 93.4922 25.0564C93.6577 25.1225 93.8482 25.1555 94.0637 25.1555C94.2141 25.1555 94.3645 25.1428 94.5149 25.1174C94.6653 25.0869 94.7806 25.064 94.8608 25.0488L95.3646 27.4649C95.2042 27.5158 94.9786 27.5742 94.6879 27.6402C94.3971 27.7114 94.0437 27.7546 93.6276 27.7698C92.8556 27.8003 92.1788 27.6961 91.5973 27.4573C91.0208 27.2185 90.5721 26.8476 90.2513 26.3445C89.9304 25.8415 89.7725 25.2063 89.7775 24.439V13.0976Z"
        fill="white" />
    <path
        d="M106.706 19.2409L103.773 19.4238C103.723 19.1697 103.616 18.9411 103.45 18.7378C103.285 18.5295 103.067 18.3643 102.796 18.2424C102.53 18.1153 102.212 18.0518 101.841 18.0518C101.345 18.0518 100.926 18.1585 100.585 18.372C100.244 18.5803 100.074 18.8598 100.074 19.2104C100.074 19.4898 100.184 19.7261 100.405 19.9192C100.625 20.1123 101.004 20.2673 101.54 20.3841L103.631 20.811C104.754 21.0447 105.591 21.4207 106.142 21.939C106.694 22.4573 106.969 23.1382 106.969 23.9817C106.969 24.749 106.746 25.4223 106.3 26.0015C105.859 26.5808 105.252 27.033 104.48 27.3582C103.713 27.6784 102.829 27.8384 101.826 27.8384C100.297 27.8384 99.0787 27.5158 98.1713 26.8704C97.269 26.22 96.7401 25.3359 96.5847 24.218L99.7354 24.0503C99.8307 24.5229 100.061 24.8836 100.427 25.1326C100.793 25.3765 101.262 25.4985 101.833 25.4985C102.395 25.4985 102.846 25.3892 103.187 25.1707C103.533 24.9472 103.708 24.6601 103.713 24.3095C103.708 24.0147 103.585 23.7734 103.345 23.5854C103.104 23.3923 102.733 23.2449 102.232 23.1433L100.232 22.7393C99.1038 22.5107 98.2641 22.1143 97.7126 21.5503C97.1662 20.9863 96.893 20.2673 96.893 19.3933C96.893 18.6413 97.0935 17.9934 97.4946 17.4497C97.9006 16.906 98.4696 16.4868 99.2015 16.1921C99.9385 15.8974 100.801 15.75 101.788 15.75C103.247 15.75 104.395 16.0625 105.232 16.6875C106.074 17.3125 106.566 18.1636 106.706 19.2409Z"
        fill="white" />
    <path
        d="M115.13 15.9024V18.3415H108.174V15.9024H115.13ZM109.753 13.0976H112.957V24.0122C112.957 24.312 113.002 24.5457 113.092 24.7134C113.182 24.876 113.308 24.9903 113.468 25.0564C113.634 25.1225 113.824 25.1555 114.04 25.1555C114.19 25.1555 114.34 25.1428 114.491 25.1174C114.641 25.0869 114.757 25.064 114.837 25.0488L115.341 27.4649C115.18 27.5158 114.955 27.5742 114.664 27.6402C114.373 27.7114 114.02 27.7546 113.604 27.7698C112.832 27.8003 112.155 27.6961 111.573 27.4573C110.997 27.2185 110.548 26.8476 110.227 26.3445C109.906 25.8415 109.748 25.2063 109.753 24.439V13.0976Z"
        fill="white" />
    <path
        d="M117.217 27.6098V15.9024H120.322V17.9451H120.443C120.653 17.2185 121.007 16.6697 121.503 16.2988C121.999 15.9228 122.571 15.7348 123.217 15.7348C123.378 15.7348 123.551 15.7449 123.736 15.7652C123.922 15.7856 124.085 15.8135 124.225 15.8491V18.7302C124.075 18.6845 123.867 18.6438 123.601 18.6082C123.335 18.5727 123.092 18.5549 122.871 18.5549C122.4 18.5549 121.979 18.659 121.608 18.8674C121.242 19.0706 120.951 19.3552 120.736 19.721C120.525 20.0869 120.42 20.5086 120.42 20.9863V27.6098H117.217Z"
        fill="white" />
    <path
        d="M128.844 27.8308C128.107 27.8308 127.45 27.7012 126.874 27.4421C126.297 27.1778 125.841 26.7891 125.505 26.2759C125.174 25.7576 125.009 25.1123 125.009 24.3399C125.009 23.6895 125.127 23.1433 125.362 22.7012C125.598 22.2591 125.919 21.9035 126.325 21.6341C126.731 21.3648 127.192 21.1616 127.709 21.0244C128.23 20.8872 128.776 20.7907 129.348 20.7348C130.02 20.6636 130.561 20.5976 130.972 20.5366C131.383 20.4705 131.681 20.374 131.867 20.247C132.052 20.1199 132.145 19.9319 132.145 19.6829V19.6372C132.145 19.1545 131.995 18.781 131.694 18.5168C131.398 18.2525 130.977 18.1204 130.431 18.1204C129.854 18.1204 129.395 18.25 129.055 18.5091C128.714 18.7632 128.488 19.0833 128.378 19.4695L125.415 19.2256C125.565 18.5142 125.861 17.8994 126.302 17.3811C126.743 16.8577 127.312 16.4563 128.009 16.1768C128.711 15.8923 129.523 15.75 130.446 15.75C131.087 15.75 131.701 15.8262 132.288 15.9787C132.88 16.1311 133.403 16.3674 133.86 16.6875C134.321 17.0076 134.684 17.4192 134.95 17.9223C135.216 18.4202 135.348 19.0173 135.348 19.7134V27.6098H132.311V25.9863H132.22C132.035 26.3521 131.787 26.6748 131.476 26.9543C131.165 27.2287 130.792 27.4446 130.355 27.6021C129.919 27.7546 129.415 27.8308 128.844 27.8308ZM129.761 25.5899C130.233 25.5899 130.649 25.4959 131.01 25.3079C131.371 25.1148 131.654 24.8557 131.859 24.5305C132.065 24.2053 132.168 23.8369 132.168 23.4253V22.1829C132.067 22.249 131.93 22.31 131.754 22.3659C131.584 22.4167 131.391 22.4649 131.175 22.5107C130.96 22.5513 130.744 22.5894 130.528 22.625C130.313 22.6555 130.117 22.6834 129.942 22.7088C129.566 22.7647 129.238 22.8537 128.957 22.9756C128.676 23.0976 128.458 23.2627 128.303 23.471C128.147 23.6743 128.069 23.9284 128.069 24.2332C128.069 24.6753 128.227 25.0132 128.543 25.247C128.864 25.4756 129.27 25.5899 129.761 25.5899Z"
        fill="white" />
    <path
        d="M137.834 32V15.9024H140.992V17.8689H141.135C141.275 17.5539 141.478 17.2337 141.744 16.9085C142.015 16.5783 142.366 16.3039 142.797 16.0854C143.233 15.8618 143.774 15.75 144.421 15.75C145.263 15.75 146.04 15.9736 146.752 16.4207C147.464 16.8628 148.033 17.531 148.459 18.4253C148.885 19.3145 149.098 20.4299 149.098 21.7713C149.098 23.0772 148.89 24.1799 148.474 25.0793C148.063 25.9736 147.501 26.6519 146.79 27.1143C146.083 27.5716 145.291 27.8003 144.413 27.8003C143.792 27.8003 143.263 27.6961 142.827 27.4878C142.396 27.2795 142.042 27.0178 141.766 26.7027C141.491 26.3826 141.28 26.06 141.135 25.7348H141.037V32H137.834ZM140.969 21.7561C140.969 22.4522 141.065 23.0595 141.255 23.5777C141.446 24.096 141.721 24.5 142.082 24.7896C142.443 25.0742 142.882 25.2165 143.398 25.2165C143.92 25.2165 144.361 25.0716 144.722 24.782C145.083 24.4873 145.356 24.0808 145.541 23.5625C145.732 23.0391 145.827 22.437 145.827 21.7561C145.827 21.0803 145.734 20.4858 145.549 19.9726C145.363 19.4593 145.09 19.0579 144.729 18.7683C144.368 18.4787 143.925 18.3338 143.398 18.3338C142.877 18.3338 142.436 18.4736 142.075 18.753C141.719 19.0325 141.446 19.4289 141.255 19.9421C141.065 20.4553 140.969 21.06 140.969 21.7561Z"
        fill="white" />
    <g filter="url(#filter0_d_386_45)">
        <path
            d="M25.1028 26.5871C27.423 26.5871 28.8211 25.506 28.8211 23.7228C28.8211 22.3748 27.8235 21.399 26.3422 21.2445V21.1883C27.4305 21.0198 28.2845 20.058 28.2845 18.9839C28.2845 17.4534 27.0149 16.4564 25.0802 16.4564H20.7271V26.5871H25.1028ZM22.4199 17.7412H24.6721C25.8964 17.7412 26.5916 18.2607 26.5916 19.2015C26.5916 20.2054 25.783 20.7671 24.3169 20.7671H22.4199V17.7412ZM22.4199 25.3024V21.9676H24.6569C26.2591 21.9676 27.0904 22.5292 27.0904 23.6245C27.0904 24.7197 26.2818 25.3024 24.7552 25.3024H22.4199Z"
            fill="url(#paint1_linear_386_45)" />
        <path
            d="M25.1028 26.5871C27.423 26.5871 28.8211 25.506 28.8211 23.7228C28.8211 22.3748 27.8235 21.399 26.3422 21.2445V21.1883C27.4305 21.0198 28.2845 20.058 28.2845 18.9839C28.2845 17.4534 27.0149 16.4564 25.0802 16.4564H20.7271V26.5871H25.1028ZM22.4199 17.7412H24.6721C25.8964 17.7412 26.5916 18.2607 26.5916 19.2015C26.5916 20.2054 25.783 20.7671 24.3169 20.7671H22.4199V17.7412ZM22.4199 25.3024V21.9676H24.6569C26.2591 21.9676 27.0904 22.5292 27.0904 23.6245C27.0904 24.7197 26.2818 25.3024 24.7552 25.3024H22.4199Z"
            stroke="white" />
    </g>
    <defs>
        <filter id="filter0_d_386_45" x="4.22705" y="3.95642" width="41.0942" height="43.1307"
            filterUnits="userSpaceOnUse" color-interpolation-filters="sRGB">
            <feFlood flood-opacity="0" result="BackgroundImageFix" />
            <feColorMatrix in="SourceAlpha" type="matrix"
                values="0 0 0 0 0 0 0 0 0 0 0 0 0 0 0 0 0 0 127 0" result="hardAlpha" />
            <feOffset dy="4" />
            <feGaussianBlur stdDeviation="8" />
            <feColorMatrix type="matrix" values="0 0 0 0 0 0 0 0 0 0 0 0 0 0 0 0 0 0 0.15 0" />
            <feBlend mode="normal" in2="BackgroundImageFix" result="effect1_dropShadow_386_45" />
            <feBlend mode="normal" in="SourceGraphic" in2="effect1_dropShadow_386_45" result="shape" />
        </filter>
        <linearGradient id="paint0_linear_386_45" x1="15.7294" y1="12.5293" x2="37.6608"
            y2="29.9385" gradientUnits="userSpaceOnUse">
            <stop stop-color="#9013FE" />
            <stop offset="1" stop-color="#6610F2" />
        </linearGradient>
        <linearGradient id="paint1_linear_386_45" x1="21.4926" y1="17.1232" x2="26.0472"
            y2="25.2169" gradientUnits="userSpaceOnUse">
            <stop stop-color="white" />
            <stop offset="1" stop-color="#F1E5FC" />
        </linearGradient>
    </defs>
</svg>