<svg width="106" height="24" viewBox="0 0 106 24" fill="none" xmlns="http://www.w3.org/2000/svg">
    <path
        d="M33.0001 23.753V0.708027H34.2501V4.33303C34.3977 4.17229 34.534 4.00155 34.6581 3.82203C35.7021 1.65603 37.9041 0.289026 40.3081 0.316026C43.1581 0.231026 45.4741 1.28603 46.8351 3.82203C47.7011 5.3975 48.1777 7.15731 48.225 8.95451C48.2723 10.7517 47.889 12.5342 47.1071 14.153C45.8391 16.995 42.7071 18.408 39.3541 17.889C38.3106 17.8003 37.3059 17.4517 36.4318 16.8749C35.5577 16.2981 34.842 15.5115 34.3501 14.587V23.752L33.0001 23.753ZM34.2501 8.86003L34.5301 11.566C35.0241 14.646 36.8451 16.466 39.7041 16.808C41.0467 17.0288 42.4243 16.7771 43.6021 16.0958C44.7799 15.4145 45.685 14.3459 46.1631 13.072C47.2751 10.422 47.1931 7.42203 45.9431 4.83403C45.4328 3.69211 44.5647 2.7473 43.47 2.14239C42.3753 1.53748 41.1134 1.30533 39.8751 1.48103C38.7127 1.56559 37.6055 2.01006 36.7073 2.75269C35.8091 3.49533 35.1645 4.49926 34.8631 5.62503C34.5968 6.69037 34.3922 7.77016 34.2501 8.85903V8.86003ZM73.7481 11.992C73.5585 13.6146 72.7861 15.1131 71.5744 16.2088C70.3628 17.3046 68.7945 17.923 67.1611 17.949C61.9191 18.213 59.4591 14.732 59.0681 10.715C58.7962 8.53359 59.1503 6.31981 60.0891 4.33203C60.7424 2.96842 61.813 1.84822 63.1456 1.13373C64.4782 0.419242 66.0037 0.147554 67.5011 0.358026C68.9245 0.47902 70.2739 1.04462 71.3582 1.97477C72.4425 2.90493 73.2069 4.15253 73.5431 5.54103C73.8094 6.80586 74.0053 8.08449 74.1301 9.37103H60.3631C60.1081 13.013 62.0651 15.941 64.8391 16.647C68.2941 17.497 71.2471 16 72.3191 12.715C72.5571 11.872 72.9911 11.753 73.7571 11.992H73.7481ZM60.3531 8.20503H72.6671C72.5901 4.32503 70.1741 1.50503 66.8971 1.47303C63.1971 1.41303 60.5141 4.12003 60.3531 8.20503ZM76.2931 12.077H77.5001C77.5444 12.9663 77.8332 13.826 78.3346 14.5617C78.836 15.2974 79.5306 15.8806 80.3421 16.247C81.3609 16.7056 82.4701 16.9284 83.587 16.899C84.7039 16.8695 85.7998 16.5886 86.7931 16.077C87.3345 15.8332 87.7881 15.4291 88.0925 14.9192C88.3969 14.4094 88.5374 13.8183 88.4951 13.226C88.5262 12.6548 88.3703 12.089 88.0508 11.6144C87.7314 11.1398 87.266 10.7822 86.7251 10.596C85.3971 10.102 83.9851 9.83003 82.6321 9.39603C81.2242 8.99519 79.8475 8.49185 78.5131 7.89003C76.3331 6.82603 76.1981 2.68203 78.6661 1.37003C79.9298 0.656937 81.3519 0.271635 82.8028 0.249277C84.2536 0.226918 85.687 0.568215 86.9721 1.24203C88.5661 2.12203 89.4471 3.89903 89.1851 5.70203H88.1501C88.1501 5.65203 88.0561 5.60803 88.0561 5.55703C87.9281 2.25703 85.1541 1.22503 82.1761 1.51503C81.2761 1.61503 80.4231 1.88703 79.6231 2.28903C79.1421 2.50865 78.7414 2.87231 78.4762 3.32969C78.2111 3.78708 78.0947 4.31556 78.1431 4.84203C78.1441 5.36888 78.3082 5.88249 78.613 6.31225C78.9178 6.74201 79.3482 7.06682 79.8451 7.24203C81.1451 7.71903 82.5251 8.02503 83.8701 8.39903L87.1201 9.24903C87.8587 9.49149 88.5064 9.95247 88.9775 10.571C89.4485 11.1895 89.7207 11.9365 89.7581 12.713C90.0181 14.458 89.1281 16.173 87.5541 16.968C84.7121 18.576 80.0311 18.151 77.9461 16.118C76.8791 15.045 76.2841 13.588 76.2961 12.076L76.2931 12.077ZM105.073 5.70303H103.941C103.941 5.55003 103.881 5.40303 103.864 5.28603C103.846 4.4375 103.537 3.62098 102.988 2.97337C102.44 2.32575 101.685 1.88642 100.851 1.72903C99.2778 1.2778 97.5996 1.35865 96.0771 1.95903C95.475 2.13132 94.9449 2.49386 94.566 2.99244C94.1871 3.49101 93.9798 4.09884 93.9751 4.72503C93.9535 5.33988 94.145 5.94332 94.517 6.43329C94.8891 6.92326 95.419 7.2697 96.0171 7.41403L101.191 8.74203C101.751 8.87622 102.302 9.04385 102.841 9.24403C104.491 9.84403 105.611 11.376 105.661 13.127C105.686 13.9841 105.451 14.8286 104.987 15.5497C104.523 16.2707 103.851 16.8345 103.061 17.167C101.86 17.7125 100.559 18.0011 99.2397 18.0144C97.9208 18.0277 96.6137 17.7653 95.4021 17.244C94.4057 16.8144 93.5648 16.0898 92.9927 15.1678C92.4206 14.2457 92.1446 13.1706 92.2021 12.087H93.3081C93.7241 14.092 95.1011 15.762 96.9901 16.552C98.8791 17.342 101.036 17.148 102.754 16.036C103.27 15.768 103.697 15.3578 103.987 14.8542C104.277 14.3505 104.416 13.7744 104.388 13.194C104.414 12.6224 104.252 12.058 103.928 11.5864C103.604 11.1149 103.135 10.7619 102.592 10.581C101.264 10.087 99.8521 9.82403 98.4991 9.38103C97.0833 8.98636 95.6983 8.4887 94.3551 7.89203C92.2271 6.84503 92.0571 2.73503 94.4831 1.42403C95.7624 0.681009 97.2123 0.281842 98.6917 0.265369C100.171 0.248897 101.629 0.615681 102.925 1.33003C103.666 1.77228 104.263 2.42047 104.642 3.19564C105.021 3.97082 105.167 4.83954 105.061 5.69603L105.073 5.70303ZM30.9431 17.533C30.4975 17.7015 30.0056 17.7011 29.5603 17.5318C29.115 17.3625 28.7471 17.036 28.5261 16.614L24.1261 10.529L23.4881 9.67903L18.3821 16.623C18.1739 17.0269 17.8259 17.3411 17.403 17.5071C16.9802 17.6731 16.5113 17.6795 16.0841 17.525L22.6621 8.70003L16.5421 0.726026C17.4501 0.398026 18.4621 0.754027 18.9671 1.57603L23.5271 7.73603L28.1141 1.60003C28.3237 1.20311 28.6719 0.897099 29.0925 0.740192C29.5131 0.583285 29.9767 0.58643 30.3951 0.749027L28.0201 3.90003L24.8031 8.08703C24.7138 8.16676 24.6423 8.26445 24.5934 8.37371C24.5445 8.48297 24.5192 8.60132 24.5192 8.72103C24.5192 8.84073 24.5445 8.95909 24.5934 9.06834C24.6423 9.1776 24.7138 9.27529 24.8031 9.35503L30.9301 17.533H30.9431ZM58.8731 0.641027V1.84103C58.0123 1.78457 57.1493 1.90922 56.3398 2.20692C55.5302 2.50462 54.792 2.96877 54.1729 3.56939C53.5538 4.17002 53.0676 4.89378 52.7455 5.69397C52.4234 6.49416 52.2727 7.35299 52.3031 8.21503C52.3031 11.0177 52.3031 13.8204 52.3031 16.623V17.576H51.0861V0.716026H52.2861V4.17103C53.7581 1.65103 56.0301 0.716027 58.8811 0.648027L58.8731 0.641027ZM0.333055 8.59003L0.869055 5.94303C2.34105 0.709027 8.34106 -1.46897 12.4691 1.77303C14.8861 3.67103 15.4891 6.36003 15.3711 9.39003H1.75405C1.53405 14.802 5.43906 18.07 10.4341 16.402C12.0801 15.802 13.3191 14.434 13.7271 12.734C13.9911 11.884 14.4271 11.738 15.2251 11.984C15.092 13.0202 14.7257 14.0126 14.1538 14.8868C13.5818 15.761 12.8191 16.4941 11.9231 17.031C10.4426 17.8407 8.74407 18.1615 7.07031 17.9475C5.39655 17.7336 3.83329 16.996 2.60405 15.84C1.38805 14.473 0.654055 12.745 0.511055 10.92C0.511055 10.62 0.411055 10.34 0.341055 10.07C0.334388 9.56536 0.331055 9.07203 0.331055 8.59003H0.333055ZM1.77105 8.22403H14.0851C14.0081 4.30103 11.5321 1.51803 8.23005 1.49203C4.55405 1.44203 1.92405 4.16403 1.76205 8.20703L1.77105 8.22403Z"
        fill="black" />
</svg>