<svg width="105" height="21" viewBox="0 0 105 21" fill="none" xmlns="http://www.w3.org/2000/svg">
    <g clip-path="url(#clip0_377_19)">
        <path
            d="M19.9532 4.71756C19.9606 4.74496 19.9644 4.77321 19.9644 4.80159V9.21283C19.9644 9.26945 19.9495 9.32506 19.9211 9.37405C19.8927 9.42305 19.8519 9.46368 19.8028 9.49185L16.1001 11.6235V15.8486C16.1001 15.9636 16.039 16.0697 15.9393 16.1276L8.21029 20.5766C8.1926 20.5867 8.1733 20.5931 8.154 20.6C8.14676 20.6024 8.13993 20.6068 8.13229 20.6088C8.07826 20.623 8.02147 20.623 7.96744 20.6088C7.95859 20.6064 7.95055 20.6016 7.94211 20.5984C7.92442 20.5919 7.90592 20.5863 7.88903 20.5766L0.161633 16.1276C0.112543 16.0994 0.0717539 16.0588 0.0433772 16.0098C0.0150006 15.9608 3.88961e-05 15.9052 0 15.8486L0 2.61486C0 2.58592 0.00402071 2.55777 0.011258 2.53043C0.0136704 2.52119 0.0192994 2.51274 0.022516 2.5035C0.028547 2.48661 0.034176 2.46932 0.0430216 2.45364C0.0490527 2.44319 0.0578982 2.43475 0.0651355 2.4251C0.0743831 2.41223 0.0828266 2.39896 0.0936825 2.38771C0.10293 2.37846 0.114992 2.37163 0.125446 2.36358C0.137106 2.35394 0.14756 2.34348 0.160828 2.33584L4.02513 0.111326C4.07406 0.0831755 4.12951 0.0683594 4.18596 0.0683594C4.24241 0.0683594 4.29786 0.0831755 4.34679 0.111326L8.21069 2.33584H8.2115C8.22436 2.34388 8.23522 2.35394 8.24688 2.36318C8.25733 2.37122 8.26899 2.37846 8.27824 2.38731C8.2895 2.39896 8.29754 2.41223 8.30719 2.4251C8.31402 2.43475 8.32327 2.44319 8.3289 2.45364C8.33815 2.46972 8.34337 2.48661 8.34981 2.5035C8.35302 2.51274 8.35865 2.52119 8.36107 2.53084C8.36847 2.55823 8.37225 2.58648 8.37232 2.61486V10.8805L11.5921 9.02668V4.80119C11.5921 4.77304 11.5961 4.7445 11.6034 4.71756C11.6062 4.70791 11.6114 4.69947 11.6146 4.69022C11.6211 4.67334 11.6267 4.65605 11.6355 4.64037C11.6416 4.62991 11.6504 4.62147 11.6572 4.61182C11.6669 4.59896 11.6749 4.58569 11.6862 4.57443C11.6954 4.56518 11.7071 4.55835 11.7176 4.55031C11.7296 4.54066 11.7401 4.53021 11.7529 4.52257L15.6176 2.29805C15.6666 2.26986 15.722 2.25502 15.7785 2.25502C15.8349 2.25502 15.8904 2.26986 15.9393 2.29805L19.8032 4.52257C19.8169 4.53061 19.8273 4.54066 19.8394 4.54991C19.8494 4.55795 19.8611 4.56518 19.8703 4.57403C19.8816 4.58569 19.8896 4.59896 19.8993 4.61182C19.9065 4.62147 19.9154 4.62991 19.921 4.64037C19.9303 4.65605 19.9355 4.67334 19.9419 4.69022C19.9455 4.69947 19.9508 4.70791 19.9532 4.71756ZM19.3203 9.02668V5.35842L17.9681 6.13678L16.1001 7.21225V10.8805L19.3207 9.02668H19.3203ZM15.4564 15.6624V11.9918L13.6189 13.0411L8.37192 16.0355V19.7408L15.4564 15.6624ZM0.644118 3.1717V15.6624L7.7278 19.7404V16.0359L4.02714 13.9417L4.02594 13.9409L4.02433 13.9401C4.01186 13.9328 4.00141 13.9224 3.98975 13.9135C3.9797 13.9055 3.96804 13.8991 3.95919 13.8902L3.95839 13.889C3.94793 13.879 3.9407 13.8665 3.93185 13.8552C3.92381 13.8444 3.91416 13.8351 3.90773 13.8239L3.90733 13.8227C3.90009 13.8106 3.89567 13.7961 3.89044 13.7825C3.88521 13.7704 3.87838 13.7592 3.87516 13.7463C3.87114 13.731 3.87034 13.7145 3.86873 13.6989C3.86712 13.6868 3.8639 13.6747 3.8639 13.6627V5.02553L1.99628 3.94965L0.644118 3.1717ZM4.18636 0.761836L0.966981 2.61486L4.18556 4.46789L7.40454 2.61446L4.18556 0.761836H4.18636ZM5.86059 12.3263L7.72821 11.2512V3.1717L6.37604 3.95006L4.50802 5.02553V13.105L5.86059 12.3263ZM15.7785 2.94856L12.5595 4.80159L15.7785 6.65461L18.997 4.80119L15.7785 2.94856ZM15.4564 7.21225L13.5884 6.13678L12.2362 5.35842V9.02668L14.1038 10.1018L15.4564 10.8805V7.21225ZM8.04946 15.4787L12.771 12.7834L15.1311 11.4365L11.9146 9.58472L8.21109 11.7168L4.83571 13.6599L8.04946 15.4787Z"
            fill="#FF2D20" />
    </g>
    <g clip-path="url(#clip1_377_19)">
        <path
            d="M27.1478 0.343933V16.6858H33.0607V19.5004H24V0.343933H27.1478ZM44.1632 8.46877V6.74596H47.1551V19.5075H44.1774V17.7776C43.7662 18.4157 43.199 18.912 42.4617 19.2664C41.7243 19.6422 40.9728 19.8194 40.2284 19.8194C39.2571 19.8194 38.3709 19.6422 37.5698 19.2877C36.7867 18.9483 36.0819 18.4511 35.4996 17.8272C34.9222 17.2082 34.4653 16.4869 34.1525 15.7003C33.8303 14.8784 33.6691 14.0023 33.6775 13.1196C33.6775 12.2263 33.8406 11.3685 34.1596 10.5673C34.4687 9.77039 34.9257 9.03911 35.5066 8.41205C36.0837 7.78478 36.7835 7.28283 37.5627 6.93739C38.3709 6.5829 39.2642 6.40566 40.2213 6.40566C40.9657 6.40566 41.7102 6.58999 42.4475 6.95157C43.1848 7.32023 43.752 7.81652 44.149 8.45459L44.1632 8.46877ZM43.8938 14.6865C44.0806 14.1876 44.1766 13.6594 44.1774 13.1267C44.1774 12.5737 44.0781 12.0633 43.8938 11.567C43.724 11.0895 43.4641 10.649 43.1281 10.2696C42.7929 9.90455 42.3879 9.61044 41.937 9.40462C41.4523 9.18221 40.9248 9.06848 40.3915 9.0714C39.8243 9.0714 39.3138 9.19192 38.8601 9.41171C38.4156 9.61817 38.0158 9.9096 37.6832 10.2696C37.3481 10.6472 37.0925 11.0884 36.9317 11.567C36.7558 12.0681 36.6671 12.5957 36.6694 13.1267C36.6694 13.6726 36.7544 14.1902 36.9317 14.6865C37.1018 15.1828 37.3571 15.6081 37.6832 15.9626C38.0129 16.3331 38.413 16.6343 38.8601 16.8488C39.3138 17.0615 39.8243 17.175 40.3915 17.175C40.9587 17.175 41.4762 17.0686 41.937 16.8488C42.3892 16.639 42.7943 16.34 43.1281 15.9697C43.4618 15.5966 43.7216 15.1636 43.8938 14.6936V14.6865ZM49.5089 19.5075V6.74596H57.6054V9.68112H52.4866V19.5004H49.5089V19.5075ZM68.4172 8.46877V6.74596H71.3949V19.5075H68.4172V17.7776C68.0202 18.4157 67.4459 18.912 66.7157 19.2664C65.9712 19.6422 65.2268 19.8194 64.4753 19.8194C63.504 19.8194 62.6178 19.6422 61.8167 19.2877C61.0336 18.9483 60.3288 18.4511 59.7464 17.8272C59.1691 17.2082 58.7122 16.4869 58.3994 15.7003C58.0797 14.878 57.9208 14.0019 57.9315 13.1196C57.9315 12.2263 58.0875 11.3685 58.4065 10.5673C58.7156 9.77039 59.1726 9.03911 59.7535 8.41205C60.3306 7.78478 61.0304 7.28283 61.8096 6.93739C62.6178 6.5829 63.5111 6.40566 64.4682 6.40566C65.2126 6.40566 65.9571 6.58999 66.6944 6.95157C67.4317 7.32023 68.006 7.81652 68.3959 8.45459L68.4172 8.46877ZM68.1478 14.6865C68.3297 14.1867 68.421 13.6585 68.4172 13.1267C68.4172 12.5737 68.325 12.0633 68.1478 11.567C67.9801 11.09 67.7226 10.6496 67.3892 10.2696C67.0498 9.903 66.6398 9.6088 66.1839 9.40462C65.7231 9.19192 65.2055 9.0714 64.6455 9.0714C64.0783 9.0714 63.5678 9.19192 63.107 9.41171C62.6625 9.61817 62.2627 9.9096 61.9301 10.2696C61.595 10.6472 61.3394 11.0884 61.1786 11.567C61.0051 12.0685 60.9188 12.5961 60.9233 13.1267C60.9233 13.6726 61.0084 14.1902 61.1786 14.6865C61.3558 15.1828 61.604 15.6081 61.9301 15.9626C62.2598 16.3331 62.6599 16.6343 63.107 16.8488C63.5678 17.0615 64.0783 17.175 64.6455 17.175C65.2126 17.175 65.7231 17.0686 66.191 16.8488C66.6483 16.6406 67.0584 16.3415 67.3963 15.9697C67.7274 15.596 67.9848 15.163 68.1549 14.6936L68.1478 14.6865ZM83.3624 6.74596H86.3897L81.4978 19.5075H77.7402L72.8483 6.74596H75.8614L79.619 16.5156L83.3624 6.75305V6.74596ZM92.891 6.41984C96.9534 6.41984 99.7255 10.0214 99.2008 14.2327H89.2965C89.2965 15.3245 90.4167 17.4515 93.054 17.4515C95.3227 17.4515 96.847 15.4663 96.847 15.4663L98.8605 17.0261C97.0526 18.9403 95.578 19.8265 93.2596 19.8265C89.1334 19.8265 86.3401 17.2033 86.3401 13.1125C86.3401 9.40462 89.2327 6.40566 92.8839 6.40566L92.891 6.41984ZM89.3107 12.0207H96.4713C96.4429 11.7726 96.0459 8.78781 92.8697 8.78781C89.6793 8.78781 89.339 11.7797 89.3107 12.0207ZM101.151 19.4862V0.343933H104.128V19.5004H101.151V19.4862Z"
            fill="#FF2D20" />
    </g>
    <defs>
        <clipPath id="clip0_377_19">
            <rect width="20" height="20.6769" fill="white" />
        </clipPath>
        <clipPath id="clip1_377_19">
            <rect width="80.1282" height="20" fill="white" transform="translate(24 0.33844)" />
        </clipPath>
    </defs>
</svg>