<svg width="119" height="44" viewBox="0 0 119 44" fill="none" xmlns="http://www.w3.org/2000/svg">
    <rect width="118.242" height="44" fill="#6CAC48" />
    <path
        d="M16.4308 12.0539L16.964 13.0567C17.0801 13.2376 17.2152 13.4056 17.3671 13.5577C17.8137 14.0043 18.2388 14.4724 18.6194 14.9738C19.5234 16.1611 20.1334 17.4795 20.5693 18.9069C20.8305 19.7786 20.9724 20.6719 20.9832 21.5759C21.0272 24.2777 20.1007 26.5979 18.2271 28.5263C17.9235 28.8319 17.5957 29.1125 17.2468 29.3652C17.0609 29.3652 16.9743 29.2185 16.898 29.0927C16.7512 28.8481 16.669 28.5806 16.6255 28.3086C16.5599 27.9818 16.5164 27.655 16.5384 27.317V27.1644C16.5276 27.1316 16.3643 12.1307 16.4293 12.0544L16.4308 12.0539Z"
        fill="white" fill-opacity="0.8" />
    <path
        d="M16.4307 12.0217C16.4086 11.9776 16.3866 12.0109 16.3651 12.0324C16.3759 12.2501 16.2996 12.4463 16.1792 12.6317C16.0486 12.8176 15.874 12.9584 15.6998 13.1111C14.7302 13.95 13.9681 14.9631 13.3576 16.0961C12.5514 17.6214 12.1268 19.2552 12.0074 20.9767C11.9536 21.598 12.2031 23.7876 12.3998 24.4191C12.933 26.097 13.8918 27.502 15.1392 28.722C15.4445 29.0155 15.7712 29.2885 16.1088 29.5497C16.2066 29.5497 16.2179 29.4626 16.2394 29.3971C16.2823 29.2579 16.315 29.1158 16.3372 28.972C16.4351 28.4275 16.4898 27.8825 16.5549 27.3381L16.4351 12.0217H16.4307Z"
        fill="white" />
    <path
        d="M16.9655 30.0295C16.9875 29.7791 17.1122 29.5721 17.2379 29.3652C17.1073 29.3114 17.009 29.2018 16.9327 29.0815C16.8671 28.9724 16.8128 28.8369 16.7693 28.7219C16.6167 28.2645 16.5834 27.7851 16.5404 27.3165V27.0328C16.4865 27.0768 16.4748 27.4466 16.4748 27.5014C16.442 28.0023 16.377 28.493 16.2791 28.9719C16.2464 29.1676 16.2253 29.3642 16.105 29.5384C16.105 29.5604 16.105 29.5824 16.1157 29.6147C16.3114 30.1919 16.3662 30.7804 16.3995 31.3797V31.5974C16.3995 31.8586 16.3887 31.8043 16.6064 31.8909C16.6935 31.9237 16.7923 31.9349 16.8789 32C16.9444 32 16.9552 31.9462 16.9552 31.9021L16.9224 31.5426V30.5398C16.9116 30.3656 16.9444 30.191 16.9664 30.0276L16.9655 30.0295Z"
        fill="white" />
    <path
        d="M27.0583 22.047V24.1793C27.0559 24.2637 27.0607 24.3482 27.0726 24.4319C27.1004 24.6844 27.2554 24.8384 27.4833 24.9092C27.6959 24.9652 27.912 25.0074 28.1301 25.0355C28.2563 25.0499 28.2984 25.1053 28.3128 25.2408C28.3272 25.7182 28.2851 25.7747 27.8221 25.7459C26.7421 25.6895 25.661 25.6761 24.581 25.7459H24.4784C24.1416 25.7603 24.1139 25.7316 24.1139 25.3948C24.1139 25.3384 24.1283 25.2686 24.1283 25.2121C24.1283 25.1094 24.1981 25.0581 24.2967 25.0581C24.5225 25.0304 24.7319 24.9739 24.9434 24.9318C25.2381 24.862 25.4054 24.6793 25.4342 24.3846C25.4752 24.0623 25.4752 23.7255 25.4752 23.4022L25.4896 19.6427C25.4942 19.5336 25.4677 19.4255 25.4132 19.331C25.3586 19.2365 25.2783 19.1594 25.1816 19.1088C24.9277 18.9678 24.6592 18.8549 24.3808 18.7721C24.2967 18.7444 24.2125 18.731 24.1427 18.6879C23.9373 18.5894 23.9322 18.4076 24.1283 18.2947C24.1981 18.2536 24.2823 18.2249 24.3665 18.2105C25.2179 18.0849 26.0544 17.8733 26.8632 17.5792C27.0316 17.5227 27.0737 17.5381 27.0891 17.7054C27.1034 17.8081 27.0891 17.9313 27.0747 18.0278C27.047 18.2105 27.047 18.3922 27.047 18.5616C27.047 18.6314 27.0614 18.7023 27.1312 18.7444C27.201 18.7865 27.2718 18.7444 27.3365 18.7033C27.6311 18.4774 27.9258 18.268 28.2481 18.0873C28.7101 17.8348 29.2029 17.61 29.7367 17.5401C30.3835 17.456 30.943 17.6243 31.4348 18.0452C31.6381 18.2272 31.8172 18.4346 31.9676 18.6622C32.1082 18.8676 32.1216 18.8727 32.3043 18.7321C32.8382 18.3389 33.3987 17.9888 34.0023 17.7362C34.6337 17.4693 35.2795 17.4282 35.9242 17.652C36.5833 17.8902 37.0329 18.3532 37.2999 18.9846C37.5257 19.4897 37.6222 20.0112 37.6222 20.5553V24.3148C37.6222 24.5674 37.7249 24.7255 37.9733 24.8487C38.2402 24.9513 38.5349 25.0027 38.8151 25.0591C38.9979 25.1002 38.9979 25.1002 38.9979 25.285C38.9702 25.747 38.9281 25.7757 38.4784 25.747C37.3524 25.6838 36.2238 25.6838 35.0978 25.747C34.8719 25.7613 34.8719 25.7613 34.8596 25.5365V25.4667C34.8452 25.0868 34.8452 25.0868 35.2107 25.0047L35.5751 24.9062C35.6986 24.8771 35.8087 24.8073 35.8877 24.708C35.9666 24.6088 36.0099 24.4858 36.0104 24.359L36.0515 23.3067L36.0238 20.5574C36.013 20.3119 35.9609 20.07 35.8698 19.8418C35.5187 18.9856 34.7477 18.6776 34.0034 18.7618C33.4418 18.8183 32.9511 19.0421 32.4881 19.3655C32.3895 19.4353 32.3197 19.5195 32.3341 19.6601C32.4604 20.5584 32.3751 21.4567 32.3905 22.354V24.3046C32.3905 24.6557 32.5312 24.824 32.8679 24.9082L33.5147 25.0489C33.6133 25.0632 33.6687 25.1053 33.6687 25.2172V25.3199C33.6543 25.7131 33.6276 25.7305 33.2334 25.7264C32.1113 25.67 30.9882 25.6854 29.8805 25.7264C29.5006 25.7408 29.4698 25.6987 29.4873 25.3158C29.5016 25.0899 29.5283 25.0776 29.7398 25.0355L30.2018 24.9513C30.6124 24.8671 30.7634 24.7132 30.7911 24.2779L30.8321 23.3375L30.8044 20.5173C30.7767 20.1662 30.7018 19.8295 30.5098 19.5072C30.2295 18.9877 29.7911 18.7218 29.1906 18.693C28.5869 18.652 28.0541 18.8758 27.548 19.155C27.1969 19.3603 27.0429 19.6037 27.0706 20.0112V22.0593L27.0583 22.047ZM53.4907 22.1322V24.1105C53.493 24.2512 53.5022 24.3917 53.5184 24.5314C53.5244 24.6246 53.5605 24.7133 53.6212 24.7842C53.6819 24.8551 53.764 24.9044 53.8552 24.9246C54.0972 24.9952 54.3466 25.0376 54.5984 25.0509C54.7391 25.0653 54.7668 25.1207 54.7812 25.2337V25.3322C54.7668 25.8229 54.7114 25.8794 54.234 25.8517C53.1663 25.7819 52.1017 25.7952 51.035 25.8517L50.6244 25.866C50.5402 25.866 50.5217 25.825 50.4981 25.7675C50.4571 25.5732 50.4571 25.3725 50.4981 25.1782C50.5125 25.094 50.5679 25.0755 50.6521 25.0519C50.8574 25.0242 51.032 24.9821 51.227 24.9493C51.5781 24.8651 51.7044 24.7234 51.7177 24.36L51.7588 23.1814V19.7299C51.7588 19.4774 51.6602 19.3234 51.4364 19.2105C51.1839 19.0698 50.917 18.9723 50.6357 18.8737C50.5515 18.846 50.4673 18.8173 50.3975 18.7752C50.2148 18.6489 50.1922 18.4672 50.3698 18.3265C50.4494 18.2611 50.5473 18.2216 50.65 18.2136C51.5483 18.073 52.4179 17.8769 53.2597 17.5401C53.3583 17.4991 53.4004 17.5258 53.4425 17.61C53.4846 17.6941 53.4989 17.7927 53.4835 17.8902L53.4425 18.5493C53.4425 18.6335 53.4014 18.7546 53.4702 18.7875C53.5544 18.844 53.6108 18.7177 53.6806 18.6848C54.0949 18.3373 54.5525 18.045 55.0419 17.8153C55.4772 17.61 55.9248 17.4785 56.431 17.5073C57.3713 17.5638 58.0448 18.0411 58.4791 18.8686C58.7049 19.3039 58.8014 19.7802 58.8435 20.272L58.8846 21.2986L58.899 24.399C58.9133 24.6372 58.9975 24.7922 59.2357 24.8764C59.4826 24.9587 59.7361 25.0198 59.9933 25.0591C60.2192 25.0868 60.2315 25.1289 60.2459 25.3394V25.4092C60.2182 25.8866 60.1894 25.8999 59.712 25.8712C58.6653 25.8151 57.6163 25.8151 56.5695 25.8712C56.4289 25.8856 56.2893 25.8712 56.1589 25.8856C56.0747 25.8856 56.0183 25.8712 56.0049 25.787C55.9772 25.6043 55.9484 25.4225 55.9905 25.2254C56.0049 25.1413 56.047 25.0992 56.1445 25.0848L56.7913 24.9821C57.0172 24.9257 57.1424 24.7768 57.1712 24.5715L57.1989 24.1783L57.1845 21.2462C57.1845 20.9095 57.1701 20.5728 57.1003 20.2361C56.9319 19.5174 56.3848 19.0041 55.6425 18.9322C54.9957 18.8624 54.4106 19.0308 53.8747 19.3809C53.6077 19.5492 53.4948 19.7874 53.4948 20.0821V22.201C53.4948 22.1599 53.4948 22.1599 53.5092 22.1599L53.4907 22.1322Z"
        fill="white" />
    <path
        d="M94.582 18.1612C94.428 17.1366 94.0482 16.225 93.3891 15.4253C92.8148 14.7188 92.0715 14.1686 91.2281 13.8258C90.3452 13.4613 89.4038 13.3484 88.45 13.3207C88.0568 13.3063 82.6979 13.3905 82.3047 13.3207C82.2061 13.3063 82.1363 13.3351 82.0788 13.4192C82.009 13.5219 81.9382 13.6297 81.8961 13.7416C81.7277 14.1214 81.7277 14.0927 82.1342 14.1481C82.471 14.2046 82.7933 14.2323 83.1167 14.3309C83.4114 14.4294 83.6218 14.5978 83.6916 14.9202C83.7194 15.0741 83.7481 20.0122 83.7481 22.3139L83.6916 23.9565C83.6773 24.0828 83.6639 24.209 83.6218 24.3209C83.5654 24.4893 83.4678 24.6289 83.2995 24.7008C83.1142 24.788 82.9144 24.8402 82.7102 24.8548C82.3303 24.8958 82.2749 24.9112 82.1486 25.3322L82.1076 25.4861C82.0798 25.6689 82.0932 25.6966 82.2759 25.6966L86.4707 25.7377L88.1133 25.71L89.2498 25.5693C90.5402 25.3311 91.6911 24.7973 92.6725 23.9421C93.2332 23.447 93.6909 22.8463 94.0195 22.1743C94.4127 21.3889 94.581 20.5317 94.6231 19.6631C94.6929 19.1724 94.6642 18.6673 94.582 18.1622V18.1612ZM92.5473 20.1528C92.4908 21.0511 92.3091 21.9207 91.8461 22.7061C91.2568 23.7306 90.415 24.4462 89.2508 24.6977C88.7457 24.8004 88.2406 24.8517 87.7109 24.7819C87.331 24.7408 86.9676 24.6977 86.6165 24.5714C85.9851 24.3456 85.7603 23.9555 85.7469 23.3395L85.7326 14.8801C85.7326 14.375 85.9584 14.2641 86.3218 14.2487C86.869 14.2077 87.4306 14.221 87.9778 14.2765C88.5603 14.3328 89.1319 14.471 89.6758 14.6871C90.0799 14.8555 90.4542 15.0878 90.7846 15.3749C91.5422 16.0217 92.0473 16.8328 92.3245 17.7875C92.5504 18.5595 92.5914 19.3449 92.5504 20.1303L92.5473 20.1528ZM106.242 21.5285C106.242 21.4443 106.242 21.3745 106.228 21.2903C106.102 20.5183 105.694 19.929 105.064 19.4804C104.657 19.1858 104.194 18.9897 103.717 18.849C103.633 18.8213 103.563 18.7926 103.479 18.7792C103.493 18.7094 103.535 18.695 103.577 18.6807C103.858 18.54 104.124 18.386 104.363 18.1756C104.798 17.8111 105.081 17.3615 105.232 16.8143C105.316 16.5196 105.316 16.225 105.289 15.916C105.266 15.5545 105.162 15.2028 104.984 14.887C104.807 14.5712 104.561 14.2993 104.264 14.0917C103.617 13.6143 102.861 13.4182 102.075 13.4038C100.56 13.3761 99.0314 13.4038 97.5172 13.4038C97.0819 13.4038 96.6476 13.4316 96.1979 13.3628C96.1138 13.3484 95.9926 13.3217 95.931 13.4192C95.8284 13.602 95.7052 13.7837 95.6641 13.9941C95.6497 14.0927 95.6785 14.1481 95.7904 14.1625L96.7585 14.3032C97.1383 14.3596 97.4053 14.5701 97.4319 14.9068C97.4595 15.1395 97.4732 15.3737 97.473 15.608L97.4453 18.231L97.4309 23.4216C97.4309 23.7296 97.3899 24.0253 97.3324 24.3333C97.3185 24.431 97.2768 24.5228 97.2122 24.5974C97.1475 24.6721 97.0627 24.7265 96.9679 24.7542C96.6876 24.8383 96.4207 24.9225 96.1261 24.9225C96.0473 24.9151 95.9684 24.9346 95.9022 24.9778C95.836 25.0211 95.7864 25.0856 95.7616 25.1607C95.7052 25.287 95.659 25.4276 95.6354 25.5539C95.6076 25.7223 95.6497 25.7798 95.8181 25.7592C95.9444 25.7449 100.574 25.8578 101.444 25.7736C101.963 25.7171 102.471 25.6473 102.987 25.4933C103.87 25.2131 104.685 24.8055 105.33 24.1177C105.864 23.5561 106.172 22.8826 106.199 22.0973C106.24 21.9145 106.24 21.7328 106.24 21.5357L106.242 21.5285ZM99.438 15.7794L99.479 14.6573C99.479 14.4469 99.5632 14.3494 99.7737 14.3062C100.11 14.2364 100.447 14.2652 100.784 14.2785C101.121 14.3062 101.443 14.3483 101.78 14.4469C102.396 14.6296 102.874 14.9807 103.155 15.569C103.283 15.8365 103.35 16.1288 103.351 16.4252C103.366 16.8184 103.337 17.1972 103.183 17.575C102.945 18.0945 102.567 18.4312 102.019 18.5298C101.471 18.6283 99.9143 18.5862 99.6761 18.5862C99.4657 18.5862 99.4503 18.5585 99.4503 18.348V17.0268C99.4173 16.6159 99.4125 16.2033 99.4359 15.7918L99.438 15.7794ZM103.996 23.3272C103.758 23.9585 103.323 24.3948 102.706 24.631C102.369 24.7572 102.032 24.8363 101.679 24.8137C101.244 24.7993 100.81 24.8137 100.375 24.7295C99.786 24.6033 99.5191 24.0417 99.477 23.6351C99.4072 22.9196 99.4493 22.1897 99.4359 21.6568V19.8048C99.4359 19.579 99.4636 19.5102 99.7028 19.5102L101.022 19.5246L101.92 19.6272C102.552 19.7679 103.127 20.0071 103.576 20.4968C103.941 20.89 104.138 21.3663 104.18 21.8858C104.221 22.3765 104.194 22.8539 104.012 23.3169L103.996 23.3272Z"
        fill="white" />
    <path
        d="M68.3489 19.1006L68.7133 19.157C69.1065 19.1714 69.5695 19.0307 69.7091 18.4836C69.7861 18.2222 69.7861 17.9442 69.7091 17.6828C69.625 17.6828 69.5829 17.7526 69.5408 17.7813C69.3303 17.9497 69.0921 18.0483 68.8396 18.076C68.3345 18.1324 67.8294 18.1037 67.3387 17.922L66.6508 17.6838C66.1711 17.5267 65.6662 17.4606 65.1622 17.4888C64.4467 17.5452 63.7732 17.7834 63.1418 18.1201C62.4684 18.4846 61.992 19.0318 61.7662 19.7761C61.6399 20.2114 61.6255 20.659 61.682 21.1086C61.8226 22.1332 62.3554 22.8487 63.3092 23.2276C63.3656 23.2419 63.4077 23.2686 63.4632 23.284C63.5894 23.3538 63.6038 23.4247 63.4909 23.5222L63.1398 23.7604L62.2979 24.2799C62.0875 24.4061 62.0598 24.5057 62.1296 24.7285C62.2131 24.9906 62.3685 25.2239 62.5782 25.402C62.7707 25.5671 62.9888 25.6999 63.224 25.7952C63.378 25.865 63.378 25.8978 63.2383 26.021L62.4376 26.5959C62.1706 26.8012 61.9037 27.0066 61.6799 27.2694C61.5243 27.4359 61.4121 27.6383 61.3534 27.8586C61.2946 28.0788 61.2911 28.3102 61.3432 28.5321C61.4475 29.0191 61.7026 29.4609 62.0721 29.7949C62.4369 30.1327 62.8806 30.3738 63.3626 30.4961C64.1479 30.7219 64.962 30.7342 65.7618 30.5802C66.9116 30.3698 67.9177 29.8616 68.7082 28.9951C69.2554 28.4202 69.5777 27.7468 69.6065 26.9419C69.6371 26.4764 69.5016 26.0151 69.2242 25.6401C68.9467 25.2651 68.5453 25.0006 68.0912 24.8938L67.3335 24.7531L65.0185 24.5478C64.7659 24.5334 64.5134 24.4913 64.3029 24.3651C64.036 24.1967 63.9662 23.8743 64.1346 23.6639C64.2609 23.5099 64.4148 23.4113 64.612 23.397L65.0606 23.3559C65.9478 23.2656 66.7807 22.8861 67.4311 22.2759C67.7783 21.9545 68.0266 21.5406 68.1466 21.083C68.315 20.4793 68.315 19.851 68.1743 19.235C68.1333 19.081 68.1466 19.0667 68.3427 19.0944L68.3489 19.1006ZM64.9097 26.0888C64.9939 26.1031 65.078 26.0888 65.1622 26.0888C65.7515 26.1165 66.3552 26.1586 66.9301 26.3146C67.1178 26.3701 67.3008 26.4405 67.4773 26.5251C68.0388 26.8331 68.2493 27.3669 68.1784 27.9418C68.0943 28.5732 67.7432 29.0218 67.196 29.3175C66.8315 29.5228 66.4239 29.6121 66.003 29.6542C65.849 29.6686 65.7084 29.6542 65.5544 29.6542C65.0637 29.6686 64.5863 29.6132 64.1233 29.416C63.8009 29.2898 63.534 29.1081 63.2958 28.8545C62.8051 28.3638 62.5772 27.4655 63.3102 26.7355C63.7588 26.3249 64.265 26.0344 64.9097 26.0888ZM66.5091 21.7113C66.2145 22.4545 65.5688 22.6794 64.924 22.5808C64.3348 22.4966 63.8995 22.1743 63.6202 21.6404C63.2558 20.9249 63.1583 20.1826 63.3677 19.4096C63.5217 18.8347 63.8728 18.3994 64.4898 18.3008C65.2752 18.1602 66.0297 18.4415 66.426 19.2268C66.6313 19.6067 66.7206 20.0687 66.7206 20.7277C66.7063 20.9947 66.6508 21.3591 66.5102 21.7102L66.5091 21.7113ZM48.8328 20.7565C48.7065 19.9988 48.4262 19.311 47.9068 18.7361C47.1347 17.8799 46.1533 17.5042 45.0445 17.5011C44.0764 17.4867 43.1658 17.768 42.3507 18.2731C41.5493 18.7526 40.9619 19.5208 40.7091 20.4198C40.4709 21.2339 40.4833 22.0624 40.668 22.8888C41.1588 25.1063 42.8712 26.059 44.9183 25.9194C45.5219 25.8783 46.0968 25.6812 46.643 25.4143C47.4571 25.0344 48.0464 24.4318 48.4529 23.6321C48.7753 22.973 48.9149 22.2708 48.9016 21.471L48.8317 20.7555L48.8328 20.7565ZM46.8411 23.8713C46.7408 24.1869 46.5506 24.4665 46.2939 24.6758C46.0372 24.8851 45.7251 25.0151 45.3956 25.0498C44.7797 25.134 44.2027 24.98 43.6843 24.6145C43.31 24.3392 43.0069 23.9784 42.8003 23.5622C42.2254 22.3837 42.1269 21.1497 42.4205 19.8869C42.515 19.4961 42.7195 19.1406 43.0098 18.8624C43.5292 18.385 44.1319 18.2731 44.8064 18.4137C45.4531 18.5544 45.9428 18.9045 46.3463 19.4383C46.7498 19.9722 46.9356 20.5881 47.0475 21.2349C47.1039 21.5573 47.1039 21.894 47.1173 22.1044C47.1173 22.7779 47.0608 23.3364 46.8504 23.8723L46.8411 23.8713ZM79.4877 20.8694C79.385 20.0553 79.0812 19.312 78.5052 18.695C77.7476 17.8676 76.7651 17.5165 75.6718 17.5021C74.7314 17.4877 73.8618 17.7546 73.0621 18.2177C72.1638 18.7515 71.5468 19.5081 71.3086 20.5327C71.0242 21.6505 71.1434 22.8328 71.6453 23.8713C72.1073 24.8537 72.8937 25.4851 73.9327 25.7654C75.0825 26.0734 76.1779 25.9337 77.2435 25.4143C78.1695 24.9656 78.8286 24.2645 79.2074 23.3097C79.4333 22.7481 79.5154 22.1455 79.5298 21.4433C79.5442 21.317 79.5154 21.0922 79.4887 20.8684L79.4877 20.8694ZM77.5515 23.6896C77.3256 24.4472 76.8503 24.9379 76.0506 25.0509C75.4613 25.135 74.9008 24.9944 74.3946 24.6577C73.9593 24.363 73.6514 23.9698 73.4265 23.5078C73.174 23.0171 73.0333 22.4976 72.9779 21.9648C72.8937 21.3057 72.8937 20.661 73.0477 20.0009C73.0771 19.8707 73.1194 19.7438 73.174 19.6221C73.5672 18.6396 74.4367 18.191 75.4613 18.4158C76.1491 18.5698 76.6676 18.9496 77.0608 19.5245C77.4406 20.0861 77.6223 20.7031 77.7075 21.3725C77.7486 21.6394 77.764 21.9197 77.7486 22.1578C77.7486 22.705 77.7075 23.2101 77.5433 23.7008L77.5515 23.6896Z"
        fill="white" />
</svg>