<svg width="106" height="41" viewBox="0 0 106 41" fill="none" xmlns="http://www.w3.org/2000/svg">
    <path
        d="M9.14699 0.153992L10.237 2.20399C10.4743 2.57378 10.7505 2.91707 11.061 3.22799C11.974 4.14099 12.843 5.09799 13.621 6.12299C15.469 8.54999 16.716 11.245 17.607 14.163C18.141 15.945 18.431 17.771 18.453 19.619C18.543 25.142 16.649 29.885 12.819 33.827C12.1984 34.4519 11.5282 35.0254 10.815 35.542C10.435 35.542 10.258 35.242 10.102 34.985C9.80199 34.485 9.63399 33.938 9.54499 33.382C9.41099 32.714 9.32199 32.046 9.36699 31.355V31.043C9.34499 30.976 9.01099 0.310992 9.14399 0.154992L9.14699 0.153992Z"
        fill="#599636" />
    <path
        d="M9.14703 0.0880233C9.10203 -0.00197665 9.05703 0.0660237 9.01303 0.110024C9.03503 0.555024 8.87903 0.956024 8.63303 1.33502C8.36603 1.71502 8.00903 2.00302 7.65303 2.31502C5.67103 4.03002 4.11303 6.10102 2.86503 8.41702C1.21703 11.535 0.349033 14.875 0.105033 18.394C-0.00496652 19.664 0.505033 24.14 0.907034 25.431C1.99703 28.861 3.95703 31.733 6.50703 34.227C7.13103 34.827 7.79903 35.385 8.48903 35.919C8.68903 35.919 8.71203 35.741 8.75603 35.607C8.84378 35.3226 8.91062 35.0322 8.95603 34.738C9.15603 33.625 9.26803 32.511 9.40103 31.398L9.15603 0.0880233H9.14703Z"
        fill="#6CAC48" />
    <path
        d="M10.24 36.9C10.285 36.388 10.54 35.965 10.797 35.542C10.53 35.432 10.329 35.208 10.173 34.962C10.039 34.739 9.92796 34.462 9.83896 34.227C9.52696 33.292 9.45896 32.312 9.37096 31.354V30.774C9.26096 30.864 9.23696 31.62 9.23696 31.732C9.16996 32.756 9.03696 33.759 8.83696 34.738C8.76996 35.138 8.72696 35.54 8.48096 35.896C8.48096 35.941 8.48096 35.986 8.50296 36.052C8.90296 37.232 9.01496 38.435 9.08296 39.66V40.105C9.08296 40.639 9.06096 40.528 9.50596 40.705C9.68396 40.772 9.88596 40.795 10.063 40.928C10.197 40.928 10.219 40.818 10.219 40.728L10.152 39.993V37.943C10.13 37.587 10.197 37.23 10.242 36.896L10.24 36.9Z"
        fill="#C2BFBF" />
    <path
        d="M27.1507 27.5863V29.7072C27.1483 29.7912 27.1531 29.8752 27.165 29.9584C27.1926 30.2096 27.3468 30.3628 27.5734 30.4332C27.785 30.4889 27.9998 30.5309 28.2168 30.5588C28.3424 30.5731 28.3842 30.6283 28.3985 30.7631C28.4128 31.2379 28.3709 31.294 27.9104 31.2655C26.8362 31.2093 25.761 31.196 24.6867 31.2655H24.5846C24.2497 31.2797 24.2221 31.2512 24.2221 30.9162C24.2221 30.8601 24.2364 30.7906 24.2364 30.7345C24.2364 30.6324 24.3059 30.5813 24.4039 30.5813C24.6285 30.5537 24.8368 30.4976 25.0472 30.4557C25.3402 30.3863 25.5067 30.2045 25.5353 29.9114C25.5761 29.5908 25.5761 29.2559 25.5761 28.9342L25.5904 25.1949C25.595 25.0864 25.5687 24.9789 25.5144 24.8849C25.4602 24.7908 25.3803 24.7142 25.2841 24.6639C25.0316 24.5236 24.7645 24.4113 24.4876 24.329C24.4039 24.3014 24.3201 24.2881 24.2507 24.2452C24.0465 24.1472 24.0414 23.9665 24.2364 23.8541C24.3058 23.8133 24.3896 23.7847 24.4733 23.7704C25.3202 23.6454 26.1522 23.435 26.9567 23.1424C27.1242 23.0862 27.166 23.1016 27.1813 23.268C27.1956 23.3701 27.1813 23.4927 27.167 23.5886C27.1395 23.7704 27.1395 23.9511 27.1395 24.1196C27.1395 24.1891 27.1538 24.2595 27.2232 24.3014C27.2926 24.3433 27.3631 24.3014 27.4274 24.2605C27.7205 24.0359 28.0136 23.8276 28.3342 23.6479C28.7937 23.3967 29.2838 23.173 29.8148 23.1036C30.4581 23.0199 31.0146 23.1873 31.5038 23.606C31.706 23.787 31.8841 23.9933 32.0337 24.2197C32.1736 24.4239 32.1869 24.429 32.3686 24.2891C32.8996 23.898 33.4572 23.5498 34.0576 23.2986C34.6856 23.0331 35.3279 22.9923 35.9691 23.2149C36.6247 23.4518 37.0719 23.9123 37.3374 24.5403C37.5621 25.0427 37.6581 25.5614 37.6581 26.1026V29.842C37.6581 30.0932 37.7602 30.2505 38.0073 30.373C38.2728 30.4751 38.5658 30.5262 38.8446 30.5823C39.0264 30.6232 39.0264 30.6232 39.0264 30.807C38.9988 31.2665 38.9569 31.2951 38.5097 31.2665C37.3897 31.2037 36.2671 31.2037 35.1471 31.2665C34.9225 31.2808 34.9225 31.2808 34.9102 31.0571V30.9877C34.8959 30.6099 34.8959 30.6099 35.2594 30.5282L35.6219 30.4302C35.7448 30.4013 35.8543 30.3319 35.9328 30.2331C36.0113 30.1344 36.0544 30.0121 36.0549 29.8859L36.0957 28.8393L36.0682 26.1047C36.0575 25.8605 36.0057 25.6199 35.915 25.393C35.5658 24.5413 34.7989 24.235 34.0586 24.3187C33.5 24.3749 33.012 24.5975 32.5514 24.9192C32.4534 24.9886 32.384 25.0723 32.3983 25.2122C32.5239 26.1057 32.4391 26.9992 32.4544 27.8917V29.8318C32.4544 30.181 32.5943 30.3485 32.9292 30.4322L33.5726 30.5721C33.6706 30.5864 33.7257 30.6283 33.7257 30.7396V30.8417C33.7114 31.2328 33.6849 31.2501 33.2928 31.246C32.1767 31.1899 31.0596 31.2052 29.9578 31.246C29.58 31.2603 29.5493 31.2185 29.5667 30.8376C29.581 30.613 29.6075 30.6007 29.8179 30.5588L30.2774 30.4751C30.6858 30.3914 30.8359 30.2382 30.8635 29.8052L30.9044 28.8699L30.8768 26.0649C30.8492 25.7156 30.7747 25.3807 30.5837 25.0601C30.305 24.5434 29.8689 24.2789 29.2716 24.2503C28.6712 24.2095 28.1412 24.4321 27.6378 24.7098C27.2886 24.9141 27.1354 25.1561 27.163 25.5615V27.5986L27.1507 27.5863ZM53.4416 27.6711V29.6388C53.4438 29.7787 53.453 29.9184 53.4692 30.0575C53.4751 30.1501 53.511 30.2383 53.5714 30.3089C53.6318 30.3794 53.7134 30.4284 53.8041 30.4485C54.0449 30.5187 54.2929 30.5609 54.5434 30.5741C54.6833 30.5884 54.7108 30.6436 54.7251 30.7559V30.8539C54.7108 31.342 54.6557 31.3982 54.1809 31.3706C53.1189 31.3012 52.06 31.3145 50.9991 31.3706L50.5906 31.3849C50.5069 31.3849 50.4885 31.3441 50.465 31.2869C50.4242 31.0936 50.4242 30.894 50.465 30.7008C50.4793 30.617 50.5344 30.5987 50.6182 30.5752C50.8224 30.5476 50.996 30.5057 51.19 30.4731C51.5392 30.3893 51.6648 30.2484 51.6781 29.8869L51.7189 28.7147V25.2817C51.7189 25.0305 51.6209 24.8773 51.3983 24.765C51.1471 24.6251 50.8816 24.5281 50.6018 24.43C50.5181 24.4025 50.4344 24.3739 50.3649 24.332C50.1832 24.2064 50.1607 24.0257 50.3374 23.8858C50.4166 23.8207 50.5139 23.7815 50.6161 23.7735C51.5096 23.6336 52.3745 23.4385 53.2118 23.1036C53.3099 23.0628 53.3517 23.0893 53.3936 23.173C53.4355 23.2568 53.4498 23.3548 53.4344 23.4518L53.3936 24.1074C53.3936 24.1911 53.3527 24.3116 53.4212 24.3443C53.5049 24.4004 53.5611 24.2748 53.6305 24.2422C54.0425 23.8965 54.4977 23.6058 54.9845 23.3773C55.4175 23.173 55.8627 23.0423 56.3661 23.0709C57.3014 23.1271 57.9713 23.6019 58.4032 24.4249C58.6279 24.8579 58.7239 25.3317 58.7657 25.8208L58.8066 26.8419L58.8209 29.9257C58.8352 30.1626 58.9189 30.3168 59.1558 30.4006C59.4014 30.4824 59.6535 30.5432 59.9094 30.5823C60.134 30.6099 60.1463 30.6518 60.1606 30.8611V30.9305C60.133 31.4053 60.1044 31.4186 59.6296 31.39C58.5885 31.3342 57.5451 31.3342 56.5039 31.39C56.364 31.4043 56.2252 31.39 56.0955 31.4043C56.0117 31.4043 55.9556 31.39 55.9423 31.3063C55.9147 31.1245 55.8862 30.9438 55.928 30.7477C55.9423 30.664 55.9842 30.6221 56.0812 30.6078L56.7245 30.5057C56.9491 30.4496 57.0737 30.3015 57.1023 30.0973L57.1299 29.7062L57.1156 26.7899C57.1156 26.4549 57.1013 26.12 57.0319 25.7851C56.8644 25.0703 56.3201 24.5597 55.5819 24.4883C54.9385 24.4188 54.3565 24.5863 53.8235 24.9345C53.558 25.1019 53.4457 25.3388 53.4457 25.6319V27.7395C53.4457 27.6987 53.4457 27.6987 53.46 27.6987L53.4416 27.6711Z"
        fill="#47474A" />
    <path
        d="M94.3133 23.7214C94.1602 22.7023 93.7824 21.7955 93.1268 21.0001C92.5556 20.2974 91.8163 19.7502 90.9773 19.4092C90.0992 19.0467 89.1628 18.9343 88.2142 18.9068C87.8231 18.8925 82.4928 18.9762 82.1017 18.9068C82.0037 18.8925 81.9343 18.9211 81.8771 19.0048C81.8076 19.1069 81.7372 19.2141 81.6953 19.3254C81.5278 19.7033 81.5278 19.6747 81.9322 19.7298C82.2671 19.786 82.5878 19.8135 82.9094 19.9116C83.2025 20.0096 83.4118 20.1771 83.4813 20.4977C83.5088 20.6509 83.5374 25.5625 83.5374 27.8518L83.4813 29.4856C83.467 29.6112 83.4537 29.7368 83.4118 29.8481C83.3557 30.0156 83.2587 30.1545 83.0912 30.2259C82.9069 30.3126 82.7082 30.3646 82.5051 30.3791C82.1272 30.42 82.0721 30.4353 81.9465 30.8539L81.9057 31.0071C81.8781 31.1889 81.8914 31.2164 82.0731 31.2164L86.2454 31.2573L87.8792 31.2297L89.0096 31.0898C90.2932 30.8529 91.4379 30.3219 92.414 29.4713C92.9717 28.9788 93.4269 28.3813 93.7538 27.713C94.1449 26.9318 94.3123 26.0792 94.3542 25.2153C94.4236 24.7272 94.395 24.2248 94.3133 23.7224V23.7214ZM92.2895 25.7024C92.2333 26.5958 92.0526 27.4607 91.592 28.2419C91.0059 29.261 90.1686 29.9727 89.0106 30.2229C88.5082 30.325 88.0059 30.376 87.479 30.3066C87.1011 30.2658 86.7397 30.2229 86.3904 30.0973C85.7625 29.8726 85.5388 29.4846 85.5255 28.8719L85.5113 20.4579C85.5113 19.9555 85.7359 19.8452 86.0974 19.8299C86.6416 19.789 87.2002 19.8023 87.7444 19.8574C88.3238 19.9135 88.8924 20.051 89.4334 20.2659C89.8353 20.4334 90.2076 20.6644 90.5362 20.95C91.2898 21.5934 91.7922 22.4 92.0679 23.3497C92.2925 24.1176 92.3334 24.8987 92.2925 25.6799L92.2895 25.7024ZM105.911 27.0707C105.911 26.9869 105.911 26.9175 105.897 26.8338C105.771 26.0659 105.366 25.4798 104.739 25.0335C104.335 24.7405 103.874 24.5454 103.399 24.4055C103.316 24.378 103.246 24.3494 103.162 24.3361C103.177 24.2667 103.219 24.2524 103.26 24.2381C103.539 24.0982 103.805 23.945 104.042 23.7357C104.475 23.3732 104.756 22.9259 104.906 22.3817C104.99 22.0886 104.99 21.7955 104.963 21.4882C104.94 21.1286 104.836 20.7788 104.66 20.4647C104.484 20.1506 104.239 19.8802 103.944 19.6736C103.3 19.1988 102.548 19.0038 101.767 18.9895C100.259 18.9619 98.7389 18.9895 97.2327 18.9895C96.7998 18.9895 96.3678 19.0171 95.9206 18.9486C95.8369 18.9343 95.7164 18.9078 95.6551 19.0048C95.553 19.1866 95.4304 19.3673 95.3896 19.5766C95.3753 19.6747 95.4039 19.7298 95.5152 19.7441L96.4781 19.884C96.8559 19.9402 97.1214 20.1495 97.148 20.4844C97.1754 20.7159 97.189 20.9488 97.1888 21.1818L97.1613 23.7908L97.147 28.9536C97.147 29.26 97.1061 29.554 97.0489 29.8604C97.0352 29.9576 96.9937 30.0489 96.9294 30.1231C96.8651 30.1974 96.7807 30.2515 96.6864 30.279C96.4077 30.3628 96.1422 30.4465 95.8491 30.4465C95.7708 30.4391 95.6923 30.4585 95.6264 30.5015C95.5605 30.5445 95.5113 30.6087 95.4866 30.6834C95.4304 30.809 95.3845 30.9489 95.361 31.0745C95.3334 31.242 95.3753 31.2991 95.5428 31.2787C95.6684 31.2644 100.274 31.3767 101.139 31.293C101.655 31.2369 102.16 31.1674 102.673 31.0142C103.551 30.7355 104.362 30.3301 105.003 29.6459C105.534 29.0874 105.841 28.4175 105.868 27.6364C105.909 27.4546 105.909 27.2739 105.909 27.0778L105.911 27.0707ZM99.1433 21.3524L99.1841 20.2363C99.1841 20.027 99.2678 19.9299 99.4772 19.8871C99.8121 19.8176 100.147 19.8462 100.482 19.8595C100.817 19.8871 101.138 19.9289 101.472 20.027C102.085 20.2087 102.561 20.5579 102.841 21.143C102.968 21.4091 103.034 21.6999 103.036 21.9947C103.05 22.3857 103.021 22.7625 102.868 23.1383C102.631 23.655 102.256 23.9899 101.71 24.088C101.165 24.186 99.6171 24.1441 99.3802 24.1441C99.1708 24.1441 99.1555 24.1166 99.1555 23.9072V22.593C99.1227 22.1844 99.1179 21.7739 99.1412 21.3646L99.1433 21.3524ZM103.677 28.8597C103.44 29.4877 103.007 29.9216 102.393 30.1565C102.059 30.2821 101.724 30.3607 101.372 30.3383C100.939 30.324 100.507 30.3383 100.076 30.2545C99.4894 30.1289 99.2239 29.5704 99.1821 29.166C99.1126 28.4543 99.1545 27.7283 99.1412 27.1983V25.3562C99.1412 25.1316 99.1688 25.0631 99.4067 25.0631L100.719 25.0774L101.612 25.1795C102.24 25.3194 102.812 25.5574 103.259 26.0444C103.622 26.4355 103.818 26.9093 103.86 27.426C103.901 27.9141 103.874 28.3889 103.692 28.8495L103.677 28.8597Z"
        fill="#C2BFBF" />
    <path
        d="M68.2204 24.6557L68.5829 24.7119C68.974 24.7262 69.4345 24.5863 69.5734 24.042C69.65 23.7821 69.65 23.5055 69.5734 23.2456C69.4896 23.2456 69.4478 23.315 69.4059 23.3436C69.1966 23.511 68.9597 23.6091 68.7085 23.6366C68.2061 23.6928 67.7037 23.6642 67.2156 23.4835L66.5314 23.2466C66.0543 23.0903 65.5521 23.0245 65.0508 23.0526C64.3391 23.1087 63.6692 23.3456 63.0412 23.6806C62.3714 24.0431 61.8976 24.5873 61.6729 25.3276C61.5473 25.7606 61.533 26.2058 61.5892 26.653C61.7291 27.6721 62.2591 28.3839 63.2077 28.7606C63.2638 28.7749 63.3057 28.8015 63.3609 28.8168C63.4865 28.8862 63.5008 28.9567 63.3884 29.0537L63.0392 29.2906L62.2019 29.8073C61.9925 29.9329 61.965 30.0319 62.0344 30.2535C62.1175 30.5142 62.2721 30.7463 62.4806 30.9234C62.6721 31.0877 62.8891 31.2198 63.1229 31.3145C63.2761 31.3839 63.2761 31.4166 63.1372 31.5391L62.3408 32.111C62.0753 32.3152 61.8098 32.5194 61.5872 32.7808C61.4323 32.9465 61.3208 33.1478 61.2624 33.3668C61.2039 33.5859 61.2005 33.816 61.2522 34.0368C61.356 34.5212 61.6097 34.9606 61.9772 35.2928C62.3401 35.6288 62.7814 35.8686 63.2608 35.9902C64.0419 36.2149 64.8517 36.2271 65.6472 36.0739C66.7908 35.8646 67.7915 35.3591 68.5778 34.4973C69.122 33.9255 69.4427 33.2556 69.4713 32.4551C69.5017 31.9921 69.367 31.5333 69.091 31.1603C68.8151 30.7873 68.4157 30.5242 67.9641 30.4179L67.2105 30.278L64.9079 30.0738C64.6567 30.0595 64.4055 30.0177 64.1961 29.8921C63.9306 29.7246 63.8612 29.404 64.0287 29.1946C64.1543 29.0415 64.3074 28.9434 64.5035 28.9291L64.9497 28.8883C65.8322 28.7985 66.6607 28.4211 67.3075 27.8141C67.6529 27.4944 67.8998 27.0827 68.0192 26.6275C68.1867 26.0271 68.1867 25.4022 68.0468 24.7895C68.0059 24.6363 68.0192 24.622 68.2143 24.6496L68.2204 24.6557ZM64.7996 31.6065C64.8833 31.6208 64.9671 31.6065 65.0508 31.6065C65.6369 31.6341 66.2374 31.676 66.8092 31.8312C66.9959 31.8863 67.1779 31.9563 67.3534 32.0405C67.912 32.3468 68.1213 32.8778 68.0509 33.4497C67.9671 34.0776 67.6179 34.5239 67.0737 34.818C66.7112 35.0222 66.3058 35.111 65.8871 35.1529C65.7339 35.1672 65.594 35.1529 65.4409 35.1529C64.9528 35.1672 64.478 35.112 64.0174 34.916C63.6968 34.7904 63.4313 34.6096 63.1944 34.3574C62.7063 33.8693 62.4796 32.9758 63.2087 32.2498C63.6549 31.8414 64.1583 31.5524 64.7996 31.6065ZM66.3905 27.2524C66.0975 27.9917 65.4552 28.2154 64.8139 28.1173C64.2278 28.0336 63.7948 27.713 63.5171 27.182C63.1546 26.4703 63.0576 25.732 63.2659 24.9631C63.4191 24.3913 63.7683 23.9583 64.382 23.8603C65.1631 23.7204 65.9137 24.0002 66.3078 24.7813C66.512 25.1591 66.6009 25.6186 66.6009 26.2742C66.5866 26.5397 66.5314 26.9022 66.3915 27.2514L66.3905 27.2524ZM48.8088 26.3028C48.6832 25.5492 48.4044 24.8651 47.8878 24.2932C47.1199 23.4416 46.1437 23.0679 45.0409 23.0648C44.0779 23.0505 43.1722 23.3303 42.3614 23.8327C41.5644 24.3097 40.9801 25.0737 40.7287 25.9679C40.4918 26.7776 40.504 27.6017 40.6878 28.4237C41.1759 30.6293 42.8791 31.5769 44.9153 31.438C45.5157 31.3972 46.0875 31.2011 46.6308 30.9356C47.4405 30.5578 48.0266 29.9584 48.431 29.163C48.7516 28.5074 48.8905 27.809 48.8772 27.0135L48.8078 26.3018L48.8088 26.3028ZM46.8278 29.4009C46.728 29.7149 46.5389 29.993 46.2836 30.2012C46.0282 30.4093 45.7177 30.5386 45.3901 30.5731C44.7774 30.6569 44.2035 30.5037 43.6879 30.1402C43.3156 29.8663 43.0142 29.5075 42.8087 29.0935C42.2369 27.9213 42.1388 26.6939 42.4309 25.4379C42.5249 25.0492 42.7283 24.6956 43.017 24.4188C43.5337 23.944 44.1331 23.8327 44.804 23.9726C45.4473 24.1125 45.9344 24.4607 46.3357 24.9917C46.737 25.5227 46.9218 26.1353 47.0331 26.7786C47.0892 27.0993 47.0892 27.4342 47.1025 27.6435C47.1025 28.3134 47.0464 28.8689 46.837 29.4019L46.8278 29.4009ZM79.2996 26.4151C79.1975 25.6054 78.8952 24.8661 78.3224 24.2524C77.5688 23.4294 76.5916 23.0801 75.5041 23.0658C74.5687 23.0515 73.7038 23.317 72.9084 23.7776C72.0149 24.3085 71.4012 25.0611 71.1643 26.0802C70.8814 27.192 71 28.368 71.4992 29.4009C71.9587 30.3781 72.7409 31.0061 73.7743 31.2849C74.9179 31.5912 76.0075 31.4523 77.0674 30.9356C77.9885 30.4894 78.644 29.792 79.0208 28.8423C79.2455 28.2838 79.3272 27.6844 79.3414 26.9859C79.3557 26.8603 79.3272 26.6367 79.3006 26.4141L79.2996 26.4151ZM77.3737 29.2202C77.1491 29.9737 76.6763 30.4618 75.8809 30.5742C75.2947 30.6579 74.7372 30.518 74.2338 30.1831C73.8008 29.89 73.4945 29.4989 73.2709 29.0394C73.0197 28.5513 72.8798 28.0346 72.8246 27.5047C72.7409 26.8491 72.7409 26.2078 72.8941 25.5513C72.9233 25.4218 72.9653 25.2956 73.0197 25.1745C73.4108 24.1972 74.2756 23.751 75.2947 23.9746C75.9789 24.1278 76.4945 24.5056 76.8856 25.0775C77.2635 25.636 77.4442 26.2497 77.529 26.9155C77.5698 27.181 77.5851 27.4597 77.5698 27.6966C77.5698 28.2409 77.5289 28.7433 77.3656 29.2314L77.3737 29.2202Z"
        fill="#47474A" />
</svg>