<svg width="113" height="21" viewBox="0 0 113 21" fill="none" xmlns="http://www.w3.org/2000/svg">
    <path fill-rule="evenodd" clip-rule="evenodd"
        d="M15.4774 13.5208C14.6012 13.501 13.9161 13.5867 13.3429 13.8304C13.1782 13.8963 12.9147 13.8963 12.895 14.1071C12.9806 14.1927 12.9938 14.3377 13.0728 14.4562C13.2237 14.7116 13.4176 14.939 13.646 15.1282L14.3509 15.6355C14.7791 15.899 15.26 16.0505 15.6816 16.314C15.9253 16.4655 16.1625 16.6632 16.3404 16.8278C16.459 16.9135 16.538 17.0584 16.6895 17.1111V17.0782C16.6105 16.9794 16.5907 16.8344 16.5117 16.729L16.1823 16.4128C15.8612 15.9878 15.4769 15.6145 15.0426 15.3061C14.6934 15.0623 13.9227 14.7329 13.7777 14.3311L13.758 14.3113C14.0017 14.2915 14.285 14.1993 14.5156 14.1334C14.8911 14.0346 15.227 14.0544 15.6157 13.9556L16.1427 13.804V13.7052C15.9451 13.5076 15.8002 13.2441 15.596 13.0596C15.036 12.5787 14.4233 12.1044 13.7843 11.7091C13.4417 11.4917 13.007 11.3468 12.6446 11.1623C12.5129 11.0965 12.2955 11.0635 12.2164 10.9515C12.0188 10.7078 11.9068 10.3916 11.7684 10.1083L10.8659 8.19783C10.6683 7.76963 10.5497 7.34142 10.306 6.94615C9.28854 5.21593 7.81976 3.79497 6.05682 2.83537C5.64838 2.60479 5.16747 2.50598 4.65362 2.3874L3.83015 2.34128C3.65228 2.26223 3.48099 2.05801 3.32289 1.95919C2.69705 1.56392 1.08304 0.707508 0.687768 1.84061C0.391317 2.55209 1.12915 3.25699 1.37949 3.61931C1.56394 3.86965 1.80769 4.15951 1.93945 4.44279C2.0185 4.62725 2.03827 4.82488 2.11732 5.02252L2.69046 6.49159C2.80939 6.7277 2.94593 6.95452 3.0989 7.17014C3.18454 7.28872 3.34265 7.34801 3.37559 7.54564C3.22407 7.76304 3.21089 8.09243 3.12525 8.36912C2.72998 9.60762 2.8815 11.1492 3.44147 12.0583C3.61934 12.335 4.10025 12.9345 4.59433 12.7039C5.08842 12.5063 4.97642 11.8804 5.12136 11.3336C5.1543 11.2019 5.13453 11.1162 5.20041 11.024V11.0438L5.64838 11.9529C5.99095 12.4931 6.58385 13.053 7.07793 13.422C7.34144 13.6196 7.55225 13.9622 7.88164 14.0807V14.0478H7.83553C7.76965 13.949 7.67083 13.9029 7.58519 13.8304C7.37647 13.6268 7.18478 13.4065 7.01205 13.1716C6.54693 12.5415 6.13488 11.8738 5.78014 11.1755C5.60226 10.833 5.45075 10.464 5.30581 10.1215C5.23994 9.98972 5.23994 9.79208 5.12794 9.7262C4.96325 9.96995 4.7195 10.1742 4.60092 10.4706C4.39011 10.9449 4.37035 11.5247 4.29129 12.1307C3.89603 12.0649 3.77744 11.7025 3.64569 11.3929C3.3163 10.6156 3.2636 9.3507 3.54687 8.46135C3.62593 8.23077 3.95532 7.50612 3.82356 7.28872C3.75768 7.07791 3.54028 6.95933 3.41512 6.79463C3.27018 6.58382 3.11867 6.32031 3.01985 6.08974C2.8288 5.47049 2.63117 4.78535 2.34789 4.17269C2.21614 3.88941 1.98556 3.59955 1.79452 3.33604C1.5903 3.033 1.35972 2.82219 1.19503 2.47963C1.13574 2.34787 1.06327 2.15024 1.14891 2.01848C1.16868 1.93284 1.21479 1.8999 1.30043 1.87355C1.44536 1.75497 1.84722 1.90649 1.99215 1.97236C2.4006 2.13706 2.73657 2.28858 3.07914 2.51915C3.23066 2.63114 3.39535 2.83537 3.59299 2.89466H3.82356C4.17271 2.97371 4.56798 2.91442 4.89737 3.01324C5.4771 3.1977 6.00412 3.47438 6.47844 3.77083C7.93225 4.69762 9.1143 5.99333 9.9041 7.52588C10.0359 7.77622 10.0886 8.00679 10.2137 8.2703L10.9581 9.88431C11.1887 10.3982 11.4061 10.9252 11.7355 11.3534C11.9002 11.584 12.559 11.7025 12.8554 11.8277C13.0728 11.9265 13.4154 12.0122 13.613 12.1373L14.7132 12.8818C14.8911 13.0135 15.372 13.2902 15.4708 13.5076L15.4774 13.5208Z"
        fill="#00678C" />
    <path fill-rule="evenodd" clip-rule="evenodd"
        d="M4.27805 3.97504C4.09359 3.97504 3.96183 3.9948 3.83008 4.02774V4.0475H3.84984C3.93548 4.22537 4.09359 4.34395 4.19899 4.49547L4.44933 5.0225L4.46909 5.00273C4.62061 4.89074 4.69967 4.71946 4.69967 4.45595C4.63379 4.37689 4.62061 4.30443 4.56791 4.22537C4.50203 4.11338 4.3571 4.06068 4.27146 3.97504H4.27805Z"
        fill="#00678C" />
    <path fill-rule="evenodd" clip-rule="evenodd"
        d="M62.5405 16.3799H71.9874C73.0942 16.3799 74.1482 16.1559 75.0046 15.754C76.4342 15.0952 77.1127 14.2191 77.1127 13.0662V10.6551C77.1127 9.73277 76.3354 8.84341 74.7807 8.24393C73.8861 7.92638 72.9433 7.76591 71.994 7.7696H68.0282C66.6974 7.7696 66.0716 7.37434 65.8937 6.49157C65.8674 6.39275 65.8674 6.29394 65.8674 6.18853V4.70628C65.8674 4.62722 65.8674 4.52841 65.8937 4.42959C66.0716 3.75105 66.4207 3.57318 67.5802 3.44142H77.2511V1.25427H68.0479C66.7172 1.25427 66.0057 1.33333 65.3865 1.53096C63.4496 2.12386 62.5998 3.08568 62.5998 4.77216V6.68262C62.5998 8.16487 64.2599 9.42314 67.0795 9.713C67.3826 9.73936 67.7054 9.73936 68.0347 9.73936H71.4275C71.5592 9.73936 71.6778 9.73935 71.7766 9.76571C72.8043 9.86452 73.2589 10.0424 73.5553 10.4245C73.753 10.6221 73.8057 10.8 73.8057 11.0306V12.941C73.8057 13.165 73.6541 13.468 73.3445 13.7184C73.0349 13.9687 72.5672 14.1466 71.9347 14.1795C71.803 14.1795 71.7371 14.2059 71.6053 14.2059H62.5405V16.3799ZM97.5547 12.5853C97.5547 14.8251 99.2411 16.0768 102.608 16.3272L103.563 16.3799H112.101V14.2059H103.49C101.514 14.2059 100.855 13.7316 100.855 12.5721V1.26086H97.5613V12.5919L97.5547 12.5853ZM79.1945 12.6841V4.90391C79.1945 2.92757 80.5977 1.71542 83.3448 1.3465L84.221 1.2938H90.453C90.7824 1.2938 91.0591 1.32015 91.3753 1.3465C94.1158 1.72201 95.4927 2.92757 95.4927 4.90391V12.6907C95.4927 14.2981 94.913 15.1545 93.5559 15.7211L96.7707 18.6329H92.9762L90.3608 16.2744L87.7257 16.426H84.2078C83.6281 16.426 82.9759 16.3601 82.2315 16.1756C80.1497 15.5959 79.1154 14.4892 79.1154 12.6841H79.1945ZM82.7387 12.5128C82.7387 12.6116 82.7914 12.7105 82.8178 12.8422C82.9956 13.7447 83.8455 14.2454 85.1499 14.2454H88.1144L85.4002 11.7816H89.1948L91.5795 13.9424C92.0407 13.692 92.3042 13.3363 92.4096 12.8883C92.4359 12.7895 92.436 12.6643 92.436 12.5589V5.11472C92.436 5.0159 92.4359 4.91709 92.4096 4.81168C92.2317 3.95527 91.3819 3.48095 90.1039 3.48095H85.163C83.7137 3.48095 82.7519 4.10679 82.7519 5.11472L82.7387 12.5128Z"
        fill="#CE8B2C" />
    <path fill-rule="evenodd" clip-rule="evenodd"
        d="M18.936 16.393H22.2036V3.4546L27.3025 14.7329C27.8823 16.09 28.7123 16.5907 30.3197 16.5907C31.9272 16.5907 32.7045 16.09 33.3106 14.7329L38.3832 3.4546V16.393H41.6771V3.4546C41.6771 2.20292 41.1764 1.59684 40.1224 1.26745C37.6388 0.516439 35.9721 1.16863 35.2211 2.84852L30.2143 14.0017L25.3921 2.84852C24.6674 1.16863 22.9809 0.516439 20.471 1.26745C19.4433 1.59684 18.936 2.18974 18.936 3.4546V16.393ZM44.3847 5.86573H47.6786V12.9806C47.6522 13.3758 47.8104 14.2849 49.6549 14.3113H56.7171V5.81303H60.011V17.4405C60.011 20.3062 56.4667 20.932 54.8066 20.9584H44.4638V18.7712H54.8395C56.9476 18.5472 56.6973 17.4932 56.6973 17.1375V16.281H49.734C46.4928 16.2547 44.411 14.8317 44.3847 13.1848V5.86573Z"
        fill="#00678C" />
</svg>