<svg width="129" height="37" viewBox="0 0 129 37" fill="none" xmlns="http://www.w3.org/2000/svg">
    <rect x="0.618652" y="0.958374" width="127.482" height="36" rx="8" fill="#333333" />
    <path fill-rule="evenodd" clip-rule="evenodd"
        d="M23.4774 21.5208C22.6012 21.501 21.9161 21.5867 21.3429 21.8304C21.1782 21.8963 20.9147 21.8963 20.895 22.1071C20.9806 22.1927 20.9938 22.3377 21.0728 22.4562C21.2237 22.7116 21.4176 22.939 21.646 23.1282L22.3509 23.6355C22.7791 23.899 23.26 24.0505 23.6816 24.314C23.9253 24.4655 24.1625 24.6632 24.3404 24.8278C24.459 24.9135 24.538 25.0584 24.6895 25.1111V25.0782C24.6105 24.9794 24.5907 24.8344 24.5117 24.729L24.1823 24.4128C23.8612 23.9878 23.4769 23.6145 23.0426 23.3061C22.6934 23.0623 21.9227 22.7329 21.7777 22.3311L21.758 22.3113C22.0017 22.2915 22.285 22.1993 22.5156 22.1334C22.8911 22.0346 23.227 22.0544 23.6157 21.9556L24.1427 21.804V21.7052C23.9451 21.5076 23.8002 21.2441 23.596 21.0596C23.036 20.5787 22.4233 20.1044 21.7843 19.7091C21.4417 19.4917 21.007 19.3468 20.6446 19.1623C20.5129 19.0965 20.2955 19.0635 20.2164 18.9515C20.0188 18.7078 19.9068 18.3916 19.7684 18.1083L18.8659 16.1978C18.6683 15.7696 18.5497 15.3414 18.306 14.9462C17.2885 13.2159 15.8198 11.795 14.0568 10.8354C13.6484 10.6048 13.1675 10.506 12.6536 10.3874L11.8301 10.3413C11.6523 10.2622 11.481 10.058 11.3229 9.95919C10.697 9.56392 9.08304 8.70751 8.68777 9.84061C8.39132 10.5521 9.12915 11.257 9.37949 11.6193C9.56394 11.8697 9.80769 12.1595 9.93945 12.4428C10.0185 12.6272 10.0383 12.8249 10.1173 13.0225L10.6905 14.4916C10.8094 14.7277 10.9459 14.9545 11.0989 15.1701C11.1845 15.2887 11.3426 15.348 11.3756 15.5456C11.2241 15.763 11.2109 16.0924 11.1253 16.3691C10.73 17.6076 10.8815 19.1492 11.4415 20.0583C11.6193 20.335 12.1002 20.9345 12.5943 20.7039C13.0884 20.5063 12.9764 19.8804 13.1214 19.3336C13.1543 19.2019 13.1345 19.1162 13.2004 19.024V19.0438L13.6484 19.9529C13.9909 20.4931 14.5838 21.053 15.0779 21.422C15.3414 21.6196 15.5523 21.9622 15.8816 22.0807V22.0478H15.8355C15.7697 21.949 15.6708 21.9029 15.5852 21.8304C15.3765 21.6268 15.1848 21.4065 15.0121 21.1716C14.5469 20.5415 14.1349 19.8738 13.7801 19.1755C13.6023 18.833 13.4507 18.464 13.3058 18.1215C13.2399 17.9897 13.2399 17.7921 13.1279 17.7262C12.9632 17.97 12.7195 18.1742 12.6009 18.4706C12.3901 18.9449 12.3703 19.5247 12.2913 20.1307C11.896 20.0649 11.7774 19.7025 11.6457 19.3929C11.3163 18.6156 11.2636 17.3507 11.5469 16.4613C11.6259 16.2308 11.9553 15.5061 11.8236 15.2887C11.7577 15.0779 11.5403 14.9593 11.4151 14.7946C11.2702 14.5838 11.1187 14.3203 11.0198 14.0897C10.8288 13.4705 10.6312 12.7854 10.3479 12.1727C10.2161 11.8894 9.98556 11.5996 9.79452 11.336C9.5903 11.033 9.35972 10.8222 9.19503 10.4796C9.13574 10.3479 9.06327 10.1502 9.14891 10.0185C9.16868 9.93284 9.21479 9.8999 9.30043 9.87355C9.44536 9.75497 9.84722 9.90649 9.99215 9.97236C10.4006 10.1371 10.7366 10.2886 11.0791 10.5192C11.2307 10.6311 11.3954 10.8354 11.593 10.8947H11.8236C12.1727 10.9737 12.568 10.9144 12.8974 11.0132C13.4771 11.1977 14.0041 11.4744 14.4784 11.7708C15.9322 12.6976 17.1143 13.9933 17.9041 15.5259C18.0359 15.7762 18.0886 16.0068 18.2137 16.2703L18.9581 17.8843C19.1887 18.3982 19.4061 18.9252 19.7355 19.3534C19.9002 19.584 20.559 19.7025 20.8554 19.8277C21.0728 19.9265 21.4154 20.0122 21.613 20.1373L22.7132 20.8818C22.8911 21.0135 23.372 21.2902 23.4708 21.5076L23.4774 21.5208Z"
        fill="#00678C" />
    <path fill-rule="evenodd" clip-rule="evenodd"
        d="M12.278 11.975C12.0936 11.975 11.9618 11.9948 11.8301 12.0277V12.0475H11.8498C11.9355 12.2254 12.0936 12.344 12.199 12.4955L12.4493 13.0225L12.4691 13.0027C12.6206 12.8907 12.6997 12.7195 12.6997 12.4559C12.6338 12.3769 12.6206 12.3044 12.5679 12.2254C12.502 12.1134 12.3571 12.0607 12.2715 11.975H12.278Z"
        fill="#00678C" />
    <path fill-rule="evenodd" clip-rule="evenodd"
        d="M70.5405 24.3799H79.9874C81.0942 24.3799 82.1482 24.1559 83.0046 23.754C84.4342 23.0952 85.1127 22.2191 85.1127 21.0662V18.6551C85.1127 17.7328 84.3354 16.8434 82.7807 16.2439C81.8861 15.9264 80.9433 15.7659 79.994 15.7696H76.0282C74.6974 15.7696 74.0716 15.3743 73.8937 14.4916C73.8674 14.3928 73.8674 14.2939 73.8674 14.1885V12.7063C73.8674 12.6272 73.8674 12.5284 73.8937 12.4296C74.0716 11.751 74.4207 11.5732 75.5802 11.4414H85.2511V9.25427H76.0479C74.7172 9.25427 74.0057 9.33333 73.3865 9.53096C71.4496 10.1239 70.5998 11.0857 70.5998 12.7722V14.6826C70.5998 16.1649 72.2599 17.4231 75.0795 17.713C75.3826 17.7394 75.7054 17.7394 76.0347 17.7394H79.4275C79.5592 17.7394 79.6778 17.7394 79.7766 17.7657C80.8043 17.8645 81.2589 18.0424 81.5553 18.4245C81.753 18.6221 81.8057 18.8 81.8057 19.0306V20.941C81.8057 21.165 81.6541 21.468 81.3445 21.7184C81.0349 21.9687 80.5672 22.1466 79.9347 22.1795C79.803 22.1795 79.7371 22.2059 79.6053 22.2059H70.5405V24.3799ZM105.555 20.5853C105.555 22.8251 107.241 24.0768 110.608 24.3272L111.563 24.3799H120.101V22.2059H111.49C109.514 22.2059 108.855 21.7316 108.855 20.5721V9.26086H105.561V20.5919L105.555 20.5853ZM87.1945 20.6841V12.9039C87.1945 10.9276 88.5977 9.71542 91.3448 9.3465L92.221 9.2938H98.453C98.7824 9.2938 99.0591 9.32015 99.3753 9.3465C102.116 9.72201 103.493 10.9276 103.493 12.9039V20.6907C103.493 22.2981 102.913 23.1545 101.556 23.7211L104.771 26.6329H100.976L98.3608 24.2744L95.7257 24.426H92.2078C91.6281 24.426 90.9759 24.3601 90.2315 24.1756C88.1497 23.5959 87.1154 22.4892 87.1154 20.6841H87.1945ZM90.7387 20.5128C90.7387 20.6116 90.7914 20.7105 90.8178 20.8422C90.9956 21.7447 91.8455 22.2454 93.1499 22.2454H96.1144L93.4002 19.7816H97.1948L99.5795 21.9424C100.041 21.692 100.304 21.3363 100.41 20.8883C100.436 20.7895 100.436 20.6643 100.436 20.5589V13.1147C100.436 13.0159 100.436 12.9171 100.41 12.8117C100.232 11.9553 99.3819 11.4809 98.1039 11.4809H93.163C91.7137 11.4809 90.7519 12.1068 90.7519 13.1147L90.7387 20.5128Z"
        fill="#CE8B2C" />
    <path fill-rule="evenodd" clip-rule="evenodd"
        d="M26.936 24.393H30.2036V11.4546L35.3025 22.7329C35.8823 24.09 36.7123 24.5907 38.3197 24.5907C39.9272 24.5907 40.7045 24.09 41.3106 22.7329L46.3832 11.4546V24.393H49.6771V11.4546C49.6771 10.2029 49.1764 9.59684 48.1224 9.26745C45.6388 8.51644 43.9721 9.16863 43.2211 10.8485L38.2143 22.0017L33.3921 10.8485C32.6674 9.16863 30.9809 8.51644 28.471 9.26745C27.4433 9.59684 26.936 10.1897 26.936 11.4546V24.393ZM52.3847 13.8657H55.6786V20.9806C55.6522 21.3758 55.8104 22.2849 57.6549 22.3113H64.7171V13.813H68.011V25.4405C68.011 28.3062 64.4667 28.932 62.8066 28.9584H52.4638V26.7712H62.8395C64.9476 26.5472 64.6973 25.4932 64.6973 25.1375V24.281H57.734C54.4928 24.2547 52.411 22.8317 52.3847 21.1848V13.8657Z"
        fill="#00678C" />
</svg>