<svg width="137" height="45" viewBox="0 0 137 45" fill="none" xmlns="http://www.w3.org/2000/svg">
    <rect width="135.482" height="44" transform="translate(0.618652 0.958374)" fill="#00678C" />
    <path fill-rule="evenodd" clip-rule="evenodd"
        d="M27.4774 25.5208C26.6012 25.501 25.9161 25.5867 25.3429 25.8304C25.1782 25.8963 24.9147 25.8963 24.895 26.1071C24.9806 26.1927 24.9938 26.3377 25.0728 26.4562C25.2237 26.7116 25.4176 26.939 25.646 27.1282L26.3509 27.6355C26.7791 27.899 27.26 28.0505 27.6816 28.314C27.9253 28.4655 28.1625 28.6632 28.3404 28.8278C28.459 28.9135 28.538 29.0584 28.6895 29.1111V29.0782C28.6105 28.9794 28.5907 28.8344 28.5117 28.729L28.1823 28.4128C27.8612 27.9878 27.4769 27.6145 27.0426 27.3061C26.6934 27.0623 25.9227 26.7329 25.7777 26.3311L25.758 26.3113C26.0017 26.2915 26.285 26.1993 26.5156 26.1334C26.8911 26.0346 27.227 26.0544 27.6157 25.9556L28.1427 25.804V25.7052C27.9451 25.5076 27.8002 25.2441 27.596 25.0596C27.036 24.5787 26.4233 24.1044 25.7843 23.7091C25.4417 23.4917 25.007 23.3468 24.6446 23.1623C24.5129 23.0965 24.2955 23.0635 24.2164 22.9515C24.0188 22.7078 23.9068 22.3916 23.7684 22.1083L22.8659 20.1978C22.6683 19.7696 22.5497 19.3414 22.306 18.9462C21.2885 17.2159 19.8198 15.795 18.0568 14.8354C17.6484 14.6048 17.1675 14.506 16.6536 14.3874L15.8301 14.3413C15.6523 14.2622 15.481 14.058 15.3229 13.9592C14.697 13.5639 13.083 12.7075 12.6878 13.8406C12.3913 14.5521 13.1291 15.257 13.3795 15.6193C13.5639 15.8697 13.8077 16.1595 13.9394 16.4428C14.0185 16.6272 14.0383 16.8249 14.1173 17.0225L14.6905 18.4916C14.8094 18.7277 14.9459 18.9545 15.0989 19.1701C15.1845 19.2887 15.3426 19.348 15.3756 19.5456C15.2241 19.763 15.2109 20.0924 15.1253 20.3691C14.73 21.6076 14.8815 23.1492 15.4415 24.0583C15.6193 24.335 16.1002 24.9345 16.5943 24.7039C17.0884 24.5063 16.9764 23.8804 17.1214 23.3336C17.1543 23.2019 17.1345 23.1162 17.2004 23.024V23.0438L17.6484 23.9529C17.9909 24.4931 18.5838 25.053 19.0779 25.422C19.3414 25.6196 19.5523 25.9622 19.8816 26.0807V26.0478H19.8355C19.7697 25.949 19.6708 25.9029 19.5852 25.8304C19.3765 25.6268 19.1848 25.4065 19.0121 25.1716C18.5469 24.5415 18.1349 23.8738 17.7801 23.1755C17.6023 22.833 17.4507 22.464 17.3058 22.1215C17.2399 21.9897 17.2399 21.7921 17.1279 21.7262C16.9632 21.97 16.7195 22.1742 16.6009 22.4706C16.3901 22.9449 16.3703 23.5247 16.2913 24.1307C15.896 24.0649 15.7774 23.7025 15.6457 23.3929C15.3163 22.6156 15.2636 21.3507 15.5469 20.4613C15.6259 20.2308 15.9553 19.5061 15.8236 19.2887C15.7577 19.0779 15.5403 18.9593 15.4151 18.7946C15.2702 18.5838 15.1187 18.3203 15.0198 18.0897C14.8288 17.4705 14.6312 16.7854 14.3479 16.1727C14.2161 15.8894 13.9856 15.5996 13.7945 15.336C13.5903 15.033 13.3597 14.8222 13.195 14.4796C13.1357 14.3479 13.0633 14.1502 13.1489 14.0185C13.1687 13.9328 13.2148 13.8999 13.3004 13.8735C13.4454 13.755 13.8472 13.9065 13.9922 13.9724C14.4006 14.1371 14.7366 14.2886 15.0791 14.5192C15.2307 14.6311 15.3954 14.8354 15.593 14.8947H15.8236C16.1727 14.9737 16.568 14.9144 16.8974 15.0132C17.4771 15.1977 18.0041 15.4744 18.4784 15.7708C19.9322 16.6976 21.1143 17.9933 21.9041 19.5259C22.0359 19.7762 22.0886 20.0068 22.2137 20.2703L22.9581 21.8843C23.1887 22.3982 23.4061 22.9252 23.7355 23.3534C23.9002 23.584 24.559 23.7025 24.8554 23.8277C25.0728 23.9265 25.4154 24.0122 25.613 24.1373L26.7132 24.8818C26.8911 25.0135 27.372 25.2902 27.4708 25.5076L27.4774 25.5208Z"
        fill="white" />
    <path fill-rule="evenodd" clip-rule="evenodd"
        d="M16.278 15.975C16.0936 15.975 15.9618 15.9948 15.8301 16.0277V16.0475H15.8498C15.9355 16.2254 16.0936 16.344 16.199 16.4955L16.4493 17.0225L16.4691 17.0027C16.6206 16.8907 16.6997 16.7195 16.6997 16.4559C16.6338 16.3769 16.6206 16.3044 16.5679 16.2254C16.502 16.1134 16.3571 16.0607 16.2715 15.975H16.278Z"
        fill="white" />
    <path fill-rule="evenodd" clip-rule="evenodd"
        d="M74.5405 28.3799H83.9874C85.0942 28.3799 86.1482 28.1559 87.0046 27.754C88.4342 27.0952 89.1127 26.2191 89.1127 25.0662V22.6551C89.1127 21.7328 88.3354 20.8434 86.7807 20.2439C85.8861 19.9264 84.9433 19.7659 83.994 19.7696H80.0282C78.6974 19.7696 78.0716 19.3743 77.8937 18.4916C77.8674 18.3928 77.8674 18.2939 77.8674 18.1885V16.7063C77.8674 16.6272 77.8674 16.5284 77.8937 16.4296C78.0716 15.751 78.4207 15.5732 79.5802 15.4414H89.2511V13.2543H80.0479C78.7172 13.2543 78.0057 13.3333 77.3865 13.531C75.4496 14.1239 74.5998 15.0857 74.5998 16.7722V18.6826C74.5998 20.1649 76.2599 21.4231 79.0795 21.713C79.3826 21.7394 79.7054 21.7394 80.0347 21.7394H83.4275C83.5592 21.7394 83.6778 21.7394 83.7766 21.7657C84.8043 21.8645 85.2589 22.0424 85.5553 22.4245C85.753 22.6221 85.8057 22.8 85.8057 23.0306V24.941C85.8057 25.165 85.6541 25.468 85.3445 25.7184C85.0349 25.9687 84.5672 26.1466 83.9347 26.1795C83.803 26.1795 83.7371 26.2059 83.6053 26.2059H74.5405V28.3799ZM109.555 24.5853C109.555 26.8251 111.241 28.0768 114.608 28.3272L115.563 28.3799H124.101V26.2059H115.49C113.514 26.2059 112.855 25.7316 112.855 24.5721V13.2609H109.561V24.5919L109.555 24.5853ZM91.1945 24.6841V16.9039C91.1945 14.9276 92.5977 13.7154 95.3448 13.3465L96.221 13.2938H102.453C102.782 13.2938 103.059 13.3202 103.375 13.3465C106.116 13.722 107.493 14.9276 107.493 16.9039V24.6907C107.493 26.2981 106.913 27.1545 105.556 27.7211L108.771 30.6329H104.976L102.361 28.2744L99.7257 28.426H96.2078C95.6281 28.426 94.9759 28.3601 94.2315 28.1756C92.1497 27.5959 91.1154 26.4892 91.1154 24.6841H91.1945ZM94.7387 24.5128C94.7387 24.6116 94.7914 24.7105 94.8178 24.8422C94.9956 25.7447 95.8455 26.2454 97.1499 26.2454H100.114L97.4002 23.7816H101.195L103.58 25.9424C104.041 25.692 104.304 25.3363 104.41 24.8883C104.436 24.7895 104.436 24.6643 104.436 24.5589V17.1147C104.436 17.0159 104.436 16.9171 104.41 16.8117C104.232 15.9553 103.382 15.4809 102.104 15.4809H97.163C95.7137 15.4809 94.7519 16.1068 94.7519 17.1147L94.7387 24.5128Z"
        fill="white" />
    <path fill-rule="evenodd" clip-rule="evenodd"
        d="M30.936 28.393H34.2036V15.4546L39.3025 26.7329C39.8823 28.09 40.7123 28.5907 42.3197 28.5907C43.9272 28.5907 44.7045 28.09 45.3106 26.7329L50.3832 15.4546V28.393H53.6771V15.4546C53.6771 14.2029 53.1764 13.5968 52.1224 13.2674C49.6388 12.5164 47.9721 13.1686 47.2211 14.8485L42.2143 26.0017L37.3921 14.8485C36.6674 13.1686 34.9809 12.5164 32.471 13.2674C31.4433 13.5968 30.936 14.1897 30.936 15.4546V28.393ZM56.3847 17.8657H59.6786V24.9806C59.6522 25.3758 59.8104 26.2849 61.6549 26.3113H68.7171V17.813H72.011V29.4405C72.011 32.3062 68.4667 32.932 66.8066 32.9584H56.4638V30.7712H66.8395C68.9476 30.5472 68.6973 29.4932 68.6973 29.1375V28.281H61.734C58.4928 28.2547 56.411 26.8317 56.3847 25.1848V17.8657Z"
        fill="white" />
</svg>