<svg width="1617" height="646" viewBox="0 0 1617 646" fill="none" xmlns="http://www.w3.org/2000/svg">
    <rect width="1616.8" height="645.5" fill="white" />
    <g clip-path="url(#clip0_110_461)">
        <path
            d="M423.175 424.211C426.008 400.61 425.159 397.149 442.738 400.972L447.201 401.364C460.718 401.979 478.4 399.19 488.788 394.364C511.15 383.988 524.41 366.664 502.36 371.216C452.063 381.592 448.605 364.561 448.605 364.561C501.716 285.758 523.918 185.725 504.754 161.239C452.484 94.45 362.006 126.033 360.492 126.853L360.01 126.942C350.072 124.88 338.95 123.648 326.456 123.446C303.695 123.072 286.424 129.413 273.323 139.35C273.323 139.35 111.915 72.852 119.424 222.978C121.021 254.914 165.201 464.633 217.894 401.288C237.153 378.125 255.765 358.54 255.765 358.54C265.007 364.68 276.072 367.812 287.677 366.687L288.574 365.922C288.293 368.798 288.417 371.611 288.933 374.941C275.361 390.108 279.349 392.771 252.21 398.357C224.753 404.016 240.884 414.091 251.413 416.724C264.181 419.917 293.718 424.44 313.681 396.5L312.886 399.688C318.211 403.948 317.851 430.307 318.606 449.14C319.362 467.974 320.623 485.549 324.462 495.911C328.301 506.271 332.831 532.961 368.498 525.317C398.307 518.929 421.098 509.735 423.175 424.21"
            fill="black" />
        <path
            d="M423.175 424.211C426.008 400.61 425.159 397.149 442.738 400.972L447.201 401.364C460.718 401.979 478.4 399.19 488.788 394.364C511.15 383.988 524.41 366.664 502.36 371.216C452.063 381.592 448.605 364.561 448.605 364.561C501.716 285.758 523.918 185.725 504.754 161.239C452.484 94.45 362.006 126.033 360.492 126.853L360.01 126.942C350.072 124.88 338.95 123.648 326.456 123.446C303.695 123.072 286.424 129.413 273.323 139.35C273.323 139.35 111.915 72.852 119.424 222.978C121.021 254.914 165.201 464.633 217.894 401.288C237.153 378.125 255.765 358.54 255.765 358.54C265.007 364.68 276.072 367.812 287.677 366.687L288.574 365.922C288.293 368.798 288.417 371.611 288.933 374.941C275.361 390.108 279.349 392.771 252.21 398.357C224.753 404.016 240.884 414.091 251.413 416.724C264.181 419.917 293.718 424.44 313.681 396.5L312.886 399.688C318.211 403.948 317.851 430.307 318.606 449.14C319.362 467.974 320.623 485.549 324.462 495.911C328.301 506.271 332.831 532.961 368.498 525.317C398.307 518.929 421.098 509.735 423.175 424.21"
            stroke="black" stroke-width="37.3953" />
        <path
            d="M502.365 371.214C452.063 381.59 448.605 364.559 448.605 364.559C501.716 285.751 523.918 185.716 504.758 161.233C452.488 94.448 362.006 126.033 360.496 126.853L360.01 126.94C350.072 124.877 338.95 123.648 326.45 123.444C303.689 123.071 286.424 129.411 273.323 139.346C273.323 139.346 111.912 72.851 119.419 222.976C121.016 254.914 165.195 464.633 217.89 401.288C237.15 378.125 255.759 358.54 255.759 358.54C265.002 364.68 276.067 367.812 287.667 366.687L288.568 365.922C288.288 368.798 288.416 371.611 288.929 374.941C275.354 390.108 279.343 392.771 252.206 398.357C224.747 404.016 240.878 414.091 251.41 416.724C264.178 419.917 293.717 424.44 313.676 396.5L312.88 399.688C318.199 403.948 321.934 427.399 321.308 448.657C320.682 469.915 320.264 484.511 324.455 495.911C328.646 507.311 332.823 532.961 368.497 525.317C398.306 518.929 413.753 502.375 415.902 474.762C417.427 455.131 420.878 458.033 421.096 440.482L423.864 432.173C427.056 405.562 424.371 396.977 442.736 400.97L447.199 401.362C460.716 401.977 478.407 399.188 488.79 394.362C511.148 383.986 524.408 366.662 502.363 371.214H502.365Z"
            fill="#336791" />
        <path
            d="M315.836 386.468C314.451 435.984 316.184 485.845 321.029 497.963C325.877 510.081 336.252 533.651 371.929 526.008C401.735 519.618 412.58 507.252 417.286 479.957C420.752 459.875 427.434 404.103 428.291 392.676M273.074 138.24C273.074 138.24 111.553 72.224 119.062 222.349C120.659 254.287 164.841 464.013 217.535 400.665C236.791 377.499 254.206 359.33 254.206 359.33M360.319 126.191C354.728 127.944 450.167 91.302 504.406 160.608C523.565 185.092 501.363 285.127 448.253 363.937"
            stroke="white" stroke-width="12.4651" stroke-linecap="round" stroke-linejoin="round" />
        <path
            d="M448.252 363.937C448.252 363.937 451.713 380.973 502.016 370.59C524.056 366.038 510.792 383.364 488.439 393.745C470.094 402.259 428.965 404.441 428.293 392.676C426.564 362.321 449.939 371.543 448.252 363.937ZM448.252 363.937C446.727 357.087 436.274 350.364 429.359 333.599C423.322 318.966 346.563 206.75 450.646 223.416C454.459 222.627 423.5 124.414 326.093 122.817C228.708 121.22 231.903 242.579 231.903 242.579"
            stroke="white" stroke-width="12.4651" stroke-linecap="round" stroke-linejoin="bevel" />
        <path
            d="M288.574 374.318C274.997 389.484 278.99 392.147 251.851 397.735C224.392 403.395 240.525 413.468 251.054 416.1C263.822 419.295 293.361 423.818 313.32 395.871C319.398 387.362 313.284 373.785 304.935 370.324C300.901 368.653 295.507 366.559 288.574 374.318Z"
            stroke="white" stroke-width="12.4651" stroke-linecap="round" stroke-linejoin="round" />
        <path
            d="M287.685 374.053C286.317 365.136 290.615 354.525 295.221 342.111C302.143 323.485 318.114 304.856 305.338 245.772C295.815 201.743 231.942 236.609 231.902 242.579C231.863 248.547 234.791 272.839 230.835 301.127C225.673 338.04 254.323 369.259 287.314 366.065"
            stroke="white" stroke-width="12.4651" stroke-linecap="round" stroke-linejoin="round" />
        <path
            d="M272.487 241.684C272.199 243.723 276.22 249.164 281.463 249.891C286.697 250.621 291.177 246.369 291.461 244.332C291.745 242.293 287.729 240.047 282.484 239.317C277.247 238.586 272.765 239.65 272.488 241.684H272.487Z"
            fill="white" stroke="white" stroke-width="4.155" />
        <path
            d="M431.911 237.527C432.195 239.566 428.179 245.007 422.935 245.734C417.697 246.464 413.217 242.212 412.93 240.175C412.653 238.136 416.67 235.89 421.909 235.16C427.148 234.43 431.627 235.493 431.911 237.528V237.527Z"
            fill="white" stroke="white" stroke-width="2.0775" />
        <path
            d="M450.646 223.416C451.509 239.41 447.201 250.304 446.658 267.33C445.854 292.078 458.457 320.404 439.467 348.765"
            stroke="white" stroke-width="12.4651" stroke-linecap="round" stroke-linejoin="round" />
        <path
            d="M603.964 233.681C612.119 232.324 622.783 231.158 636.373 231.158C653.05 231.158 665.28 235.04 673.042 242.025C680.22 248.231 684.489 257.739 684.489 269.387C684.489 281.223 680.99 290.535 674.392 297.326C665.467 306.832 650.917 311.683 634.424 311.683C629.381 311.683 624.723 311.49 620.85 310.52V362.912H603.964V233.681ZM620.85 296.737C624.536 297.706 629.195 298.093 634.82 298.093C655.185 298.093 667.61 288.199 667.61 270.156C667.61 252.889 655.386 244.545 636.76 244.545C629.388 244.545 623.76 245.128 620.85 245.904V296.737ZM786.734 315.169C786.734 349.898 762.669 365.038 739.97 365.038C714.553 365.038 694.957 346.412 694.957 316.719C694.957 285.289 715.523 266.857 741.523 266.857C768.498 266.85 786.734 286.453 786.734 315.169ZM712.233 316.139C712.233 336.704 724.068 352.225 740.754 352.225C757.05 352.225 769.267 336.898 769.267 315.749C769.267 299.84 761.319 279.663 741.134 279.663C720.948 279.663 712.233 298.289 712.233 316.139ZM805.936 345.436C810.981 348.732 819.906 352.225 828.441 352.225C840.858 352.225 846.68 346.016 846.68 338.257C846.68 330.106 841.835 325.644 829.218 320.988C812.338 314.973 804.383 305.661 804.383 294.407C804.383 279.274 816.607 266.857 836.785 266.857C846.291 266.857 854.642 269.573 859.881 272.679L855.612 285.096C851.926 282.767 845.134 279.663 836.403 279.663C826.315 279.663 820.689 285.483 820.689 292.468C820.689 300.229 826.322 303.722 838.546 308.377C854.842 314.586 863.187 322.734 863.187 336.704C863.187 353.195 850.38 364.835 828.068 364.835C817.787 364.835 808.279 362.315 801.681 358.433L805.936 345.436ZM905.668 242.015V268.986H930.106V281.983H905.668V332.622C905.668 344.263 908.96 350.861 918.472 350.861C922.934 350.861 926.233 350.278 928.369 349.695L929.143 362.502C925.853 363.859 920.607 364.828 914.019 364.828C906.064 364.828 899.653 362.306 895.58 357.65C890.737 352.607 888.982 344.263 888.982 333.205V281.983H874.431V268.986H888.982V246.478L905.668 242.015ZM1029.06 268.993C1028.67 275.782 1028.29 283.349 1028.29 294.797V349.315C1028.29 370.851 1024.02 384.044 1014.9 392.199C1005.78 400.737 992.588 403.453 980.751 403.453C969.5 403.453 957.083 400.737 949.508 395.692L953.777 382.694C959.985 386.574 969.687 390.066 981.327 390.066C998.787 390.066 1011.59 380.948 1011.59 357.277V346.799H1011.2C1005.97 355.531 995.878 362.516 981.327 362.516C958.046 362.516 941.36 342.726 941.36 316.719C941.36 284.902 962.119 266.857 983.654 266.857C999.96 266.857 1008.88 275.395 1012.96 283.156H1013.35L1014.12 268.993H1029.06ZM1011.41 306.048C1011.41 303.139 1011.21 300.616 1010.44 298.289C1007.33 288.395 998.99 280.244 986.573 280.244C970.267 280.244 958.636 294.02 958.636 315.749C958.636 334.182 967.947 349.509 986.38 349.509C996.857 349.509 1006.36 342.913 1010.05 332.048C1011.02 329.137 1011.41 325.84 1011.41 322.928V306.048H1011.41ZM1055.44 298.289C1055.44 287.229 1055.25 277.724 1054.66 268.993H1069.61L1070.19 287.422H1070.96C1075.23 274.812 1085.51 266.857 1096.96 266.857C1098.9 266.857 1100.25 267.053 1101.8 267.44V283.543C1100.07 283.156 1098.31 282.96 1095.99 282.96C1083.96 282.96 1075.42 292.081 1073.1 304.885C1072.71 307.214 1072.32 309.93 1072.32 312.84V362.896H1055.44V298.289ZM1126.46 319.048C1126.85 342.137 1141.59 351.644 1158.66 351.644C1170.89 351.644 1178.25 349.509 1184.66 346.792L1187.57 359.016C1181.55 361.732 1171.27 364.835 1156.33 364.835C1127.42 364.835 1110.15 345.823 1110.15 317.496C1110.15 289.169 1126.84 266.85 1154.2 266.85C1184.85 266.85 1193 293.818 1193 311.087C1193 314.579 1192.61 317.295 1192.42 319.041H1126.46V319.048ZM1176.52 306.825C1176.7 295.96 1172.05 279.081 1152.85 279.081C1135.58 279.081 1128.01 294.99 1126.65 306.825H1176.52Z"
            fill="black" />
        <path
            d="M1212.4 342.33C1219.97 346.986 1231.03 350.868 1242.67 350.868C1259.94 350.868 1270.02 341.75 1270.02 328.556C1270.02 316.332 1263.04 309.347 1245.38 302.556C1224.04 294.99 1210.85 283.932 1210.85 265.5C1210.85 245.128 1227.73 229.995 1253.14 229.995C1266.53 229.995 1276.22 233.098 1282.05 236.397L1277.4 250.173C1273.12 247.844 1264.4 243.965 1252.56 243.965C1234.71 243.965 1227.92 254.636 1227.92 263.56C1227.92 275.782 1235.87 281.797 1253.92 288.782C1276.04 297.326 1287.29 307.99 1287.29 327.197C1287.29 347.375 1272.34 364.835 1241.5 364.835C1228.89 364.835 1215.12 361.149 1208.12 356.494L1212.4 342.33ZM1418.26 382.104C1400.58 377.448 1383.33 372.21 1368.17 366.971C1365.48 366.001 1362.78 365.031 1360.23 365.031C1329.19 363.866 1302.61 340.973 1302.61 298.87C1302.61 256.962 1328.22 229.995 1363.55 229.995C1399.05 229.995 1422.12 257.545 1422.12 296.154C1422.12 329.719 1406.62 351.255 1384.89 358.823V359.599C1397.88 362.896 1412.06 366.001 1423.1 367.941L1418.26 382.104ZM1404.28 296.93C1404.28 270.739 1390.71 243.762 1362.96 243.762C1334.44 243.762 1320.46 270.149 1320.66 298.483C1320.46 326.227 1335.8 351.255 1362.18 351.255C1389.16 351.255 1404.28 326.81 1404.28 296.93ZM1444.05 232.128H1460.92V348.732H1516.81V362.896H1444.05V232.128Z"
            fill="#336791" />
    </g>
    <defs>
        <clipPath id="clip0_110_461">
            <rect width="1416.8" height="445.5" fill="white" transform="translate(100 100)" />
        </clipPath>
    </defs>
</svg>
    