<svg width="433" height="190" viewBox="0 0 433 190" fill="none" xmlns="http://www.w3.org/2000/svg">
    <rect width="432.69" height="189.59" fill="white" />
    <g clip-path="url(#clip0_110_461)">
        <mask id="mask0_110_461" style="mask-type:luminance" maskUnits="userSpaceOnUse" x="32"
            y="32" width="147" height="126">
            <path d="M178.43 32.01H32.01V157.49H178.43V32.01Z" fill="white" />
        </mask>
        <g mask="url(#mask0_110_461)">
            <path
                d="M172.67 128.75C164.87 132.83 124.39 149.48 115.67 154.05C106.95 158.62 102.28 158.49 95.46 155.23C88.64 151.97 45.71 134.51 37.93 130.79C34.01 128.95 32.01 127.38 32.01 125.91V111.1C32.01 111.1 88.09 98.93 97.14 95.65C106.19 92.37 109.32 92.29 117.01 95.11C124.7 97.93 170.8 106.25 178.41 109.01V123.61C178.41 125.13 176.66 126.61 172.67 128.74V128.75Z"
                fill="#A32422" />
            <path
                d="M172.67 114.01C164.87 118.07 124.39 134.72 115.67 139.21C106.95 143.7 102.28 143.66 95.46 140.41C88.64 137.16 45.71 119.7 37.93 116.01C30.15 112.32 30 109.74 37.63 106.76C45.26 103.78 88.09 87.01 97.14 83.71C106.19 80.41 109.32 80.34 117.01 83.17C124.7 86 165.01 102.01 172.58 104.8C180.15 107.59 180.5 109.88 172.67 113.93V114.01Z"
                fill="#DC382C" />
            <path
                d="M172.67 104.63C164.87 108.7 124.39 125.34 115.67 129.83C106.95 134.32 102.32 134.28 95.5 131.01C88.68 127.74 45.71 110.38 37.93 106.67C34.01 104.81 32.01 103.25 32.01 101.77V87.01C32.01 87.01 88.09 74.8 97.14 71.52C106.19 68.24 109.32 68.15 117.01 71.01C124.7 73.87 170.8 82.11 178.41 84.89V99.49C178.41 101.01 176.66 102.53 172.67 104.63Z"
                fill="#A32422" />
            <path
                d="M172.67 89.82C164.87 93.9 124.39 110.54 115.67 115.03C106.95 119.52 102.28 119.49 95.4601 116.23C88.6401 112.97 45.7101 95.58 37.9301 91.86C30.1501 88.14 30.0101 85.61 37.6301 82.63C45.2501 79.65 88.0901 62.84 97.1401 59.63C106.19 56.42 109.32 56.22 117.01 59.01C124.7 61.8 165.01 77.95 172.58 80.66C180.15 83.37 180.5 85.75 172.67 89.79V89.82Z"
                fill="#DC382C" />
            <path
                d="M172.67 79.6C164.87 83.68 124.39 100.33 115.67 104.81C106.95 109.29 102.32 109.26 95.5 106.01C88.68 102.76 45.71 85.35 37.93 81.64C34.01 79.8 32.01 78.23 32.01 76.75V61.94C32.01 61.94 88.09 49.77 97.14 46.5C106.19 43.23 109.32 43.13 117.01 45.95C124.7 48.77 170.78 57.09 178.39 59.87V74.47C178.41 76.01 176.66 77.51 172.67 79.6Z"
                fill="#A32422" />
            <path
                d="M172.67 64.81C164.87 68.81 124.39 85.56 115.67 90.01C106.95 94.46 102.28 94.45 95.46 91.21C88.64 87.97 45.71 70.54 37.93 66.84C30.15 63.14 30 60.57 37.63 57.59C45.26 54.61 88.09 37.81 97.14 34.55C106.19 31.29 109.32 31.19 117.01 34.01C124.7 36.83 165.01 52.86 172.58 55.64C180.15 58.42 180.5 60.73 172.67 64.78V64.81Z"
                fill="#DC382C" />
        </g>
        <path
            d="M107.51 43.78L117.17 40.61L114.55 46.87L124.38 50.55L111.71 51.87L108.86 58.71L104.28 51.08L89.6301 49.76L100.57 45.82L97.2801 39.76L107.51 43.78Z"
            fill="white" />
        <path d="M108.12 83.71L84.4399 73.88L118.36 68.67L108.12 83.71Z" fill="white" />
        <path
            d="M75.2899 54.35C85.2899 54.35 93.4199 57.5 93.4199 61.35C93.4199 65.2 85.2699 68.35 75.2899 68.35C65.3099 68.35 57.1499 65.2 57.1499 61.35C57.1499 57.5 65.2799 54.35 75.2899 54.35Z"
            fill="white" />
        <path d="M139.39 52.42L159.46 60.35L139.41 68.28L139.39 52.42Z" fill="#741113" />
        <path d="M139.39 52.42L139.41 68.28L137.23 69.13L117.17 61.2L139.39 52.42Z" fill="#AC2724" />
        <path
            d="M225.01 73.41C226.741 71.5214 228.868 70.0393 231.24 69.07C233.55 68.0793 236.027 67.5331 238.54 67.46C239.439 67.3783 240.345 67.4788 241.204 67.7554C242.063 68.0321 242.858 68.4792 243.54 69.07C244.046 69.5592 244.443 70.1497 244.704 70.8028C244.966 71.4559 245.088 72.1569 245.06 72.86C245.07 74.2738 244.524 75.6349 243.54 76.65C243.065 77.1809 242.479 77.6018 241.825 77.8833C241.17 78.1649 240.462 78.3002 239.75 78.28C233.51 78.83 224.85 85.05 224.85 93.5V112.68C224.81 114.104 224.225 115.458 223.217 116.464C222.209 117.47 220.854 118.052 219.43 118.09C218.701 118.116 217.976 117.979 217.307 117.69C216.638 117.402 216.041 116.968 215.56 116.42C215.053 115.926 214.649 115.337 214.371 114.687C214.093 114.036 213.947 113.337 213.94 112.63V72.63C213.946 71.9225 214.092 71.2233 214.37 70.5727C214.648 69.9222 215.053 69.3333 215.56 68.84C216.747 67.9835 218.167 67.5091 219.63 67.48C221.054 67.5081 222.413 68.0857 223.421 69.0921C224.429 70.0985 225.009 71.4558 225.04 72.88L225.01 73.41Z"
            fill="#494C4D" />
        <path
            d="M290.72 91.01C290.726 92.3169 290.245 93.5792 289.37 94.55C288.332 95.5127 286.993 96.0853 285.58 96.17H253.58C253.882 98.7116 255.119 101.05 257.05 102.73C259.524 105.39 262.908 107.021 266.53 107.3C268.364 107.612 270.242 107.556 272.054 107.138C273.867 106.719 275.578 105.945 277.09 104.86C277.621 104.325 278.256 103.904 278.956 103.624C279.656 103.343 280.406 103.209 281.16 103.23C281.807 103.2 282.454 103.305 283.059 103.539C283.663 103.773 284.212 104.131 284.67 104.59C285.097 104.982 285.443 105.455 285.688 105.981C285.932 106.507 286.071 107.076 286.095 107.656C286.119 108.236 286.028 108.814 285.829 109.359C285.629 109.904 285.323 110.404 284.93 110.83C284.85 110.92 284.76 111 284.67 111.09C282.309 113.276 279.54 114.975 276.522 116.09C273.503 117.206 270.295 117.715 267.08 117.59C263.779 117.662 260.501 117.022 257.469 115.714C254.437 114.406 251.723 112.461 249.51 110.01C244.924 105.166 242.319 98.7796 242.21 92.11C242.141 88.7891 242.753 85.4892 244.008 82.414C245.264 79.3388 247.136 76.5535 249.51 74.23C251.674 71.8728 254.313 70.0022 257.254 68.742C260.196 67.4818 263.371 66.8608 266.57 66.92C269.681 66.8013 272.782 67.3442 275.668 68.513C278.553 69.6818 281.158 71.4497 283.31 73.7C287.9 78.0974 290.624 84.0905 290.92 90.44V90.97L290.72 91.01ZM266.62 76.66C263.254 76.7174 260.019 77.9684 257.49 80.19C255.336 82.0008 253.818 84.454 253.16 87.19H281.59C280.793 84.4406 279.069 82.0519 276.71 80.43C273.863 78.1351 270.362 76.8012 266.71 76.62"
            fill="#494C4D" />
        <path
            d="M341.67 112.13C341.632 113.554 341.05 114.909 340.044 115.917C339.038 116.925 337.684 117.51 336.26 117.55C335.012 117.5 333.812 117.052 332.837 116.271C331.861 115.49 331.162 114.417 330.84 113.21C326.811 116.095 321.965 117.615 317.01 117.55C313.774 117.586 310.566 116.956 307.584 115.699C304.603 114.441 301.912 112.583 299.68 110.24C297.343 107.901 295.512 105.108 294.299 102.032C293.086 98.9562 292.518 95.6642 292.63 92.36C292.587 85.7169 295.113 79.3143 299.68 74.49C301.896 72.1061 304.577 70.2011 307.558 68.8923C310.538 67.5835 313.755 66.8987 317.01 66.88C321.872 66.8156 326.623 68.3394 330.54 71.22V52.29C330.521 51.5779 330.657 50.8703 330.939 50.2159C331.22 49.5615 331.64 48.9761 332.17 48.5C332.669 47.9859 333.266 47.5768 333.925 47.2969C334.585 47.017 335.294 46.8718 336.01 46.87C336.722 46.8512 337.43 46.9871 338.084 47.2686C338.739 47.55 339.324 47.9702 339.8 48.5C340.309 48.9928 340.715 49.5814 340.994 50.2319C341.274 50.8824 341.422 51.5819 341.43 52.29V112.13H341.67ZM317.32 106.71C319.122 106.747 320.908 106.378 322.548 105.63C324.187 104.882 325.637 103.775 326.79 102.39C329.381 99.7057 330.829 96.1206 330.829 92.39C330.829 88.6594 329.381 85.0744 326.79 82.39C325.6 81.0454 324.144 79.9621 322.514 79.2082C320.884 78.4544 319.115 78.0464 317.32 78.01C315.511 77.9474 313.713 78.307 312.067 79.0603C310.422 79.8136 308.975 80.94 307.84 82.35C305.249 85.0344 303.802 88.6194 303.802 92.35C303.802 96.0806 305.249 99.6657 307.84 102.35C309.016 103.71 310.472 104.8 312.108 105.546C313.744 106.291 315.522 106.675 317.32 106.67"
            fill="#494C4D" />
        <path
            d="M357.68 52.29V54.47C357.704 55.2351 357.567 55.9968 357.28 56.7062C356.992 57.4157 356.56 58.0573 356.01 58.59C355.52 59.085 354.925 59.4634 354.269 59.6971C353.613 59.9308 352.912 60.0138 352.22 59.94C351.511 59.964 350.804 59.8322 350.151 59.5541C349.498 59.2759 348.914 58.8581 348.44 58.33C347.902 57.8029 347.479 57.1699 347.199 56.4711C346.918 55.7722 346.786 55.0227 346.81 54.27V52.27C346.813 51.5612 346.959 50.8603 347.239 50.2092C347.519 49.5581 347.928 48.97 348.44 48.48C348.93 47.9713 349.517 47.5652 350.166 47.2854C350.815 47.0055 351.513 46.8575 352.22 46.85C352.933 46.8389 353.64 46.9804 354.293 47.265C354.947 47.5496 355.532 47.9707 356.01 48.5C356.546 48.9724 356.973 49.5565 357.26 50.2112C357.546 50.8659 357.686 51.5754 357.67 52.29M348.54 68.82C349.03 68.3078 349.618 67.8995 350.269 67.6195C350.92 67.3395 351.621 67.1934 352.33 67.19C353.043 67.1664 353.752 67.3002 354.407 67.5819C355.062 67.8637 355.647 68.2864 356.12 68.82C356.634 69.3482 357.036 69.9747 357.303 70.662C357.569 71.3493 357.694 72.0833 357.67 72.82V112.43C357.712 113.148 357.584 113.866 357.296 114.525C357.007 115.183 356.566 115.764 356.01 116.22C355.519 116.729 354.933 117.135 354.284 117.415C353.635 117.694 352.937 117.842 352.23 117.85C351.518 117.87 350.81 117.735 350.155 117.453C349.5 117.172 348.915 116.751 348.44 116.22C347.928 115.73 347.519 115.142 347.239 114.491C346.959 113.84 346.813 113.139 346.81 112.43V72.86C346.791 72.1169 346.926 71.378 347.207 70.6896C347.487 70.0012 347.907 69.3783 348.44 68.86"
            fill="#494C4D" />
        <path
            d="M396.09 72.61C397.2 73.3743 397.976 74.5331 398.26 75.85C398.479 77.2271 398.291 78.638 397.72 79.91C396.944 81.01 395.785 81.7803 394.47 82.07C393.06 82.3302 391.603 82.0403 390.4 81.26C386.61 78.83 383.65 77.48 381.2 77.48C379.036 77.3407 376.898 78.0107 375.2 79.36C374.12 80.18 373.58 80.72 373.58 81.26C373.505 81.731 373.601 82.2134 373.85 82.62C374.158 82.9533 374.524 83.2278 374.93 83.43C377.139 84.8179 379.65 85.6515 382.25 85.86C385.617 86.4151 388.894 87.4243 391.99 88.86C394.72 90.0006 397.003 92.0022 398.49 94.56C399.456 96.0505 400.117 97.7173 400.436 99.4646C400.755 101.212 400.725 103.005 400.347 104.74C399.97 106.476 399.253 108.119 398.237 109.577C397.222 111.034 395.928 112.275 394.43 113.23C390.642 115.938 386.086 117.36 381.43 117.29C375.2 117.29 369.25 114.86 363.56 110.29C362.525 109.378 361.851 108.126 361.66 106.76C361.566 105.747 361.772 104.729 362.251 103.831C362.731 102.934 363.463 102.197 364.357 101.711C365.251 101.226 366.268 101.014 367.282 101.1C368.295 101.187 369.261 101.57 370.06 102.2C373.049 105.043 377.035 106.598 381.16 106.53C383.559 106.612 385.924 105.948 387.93 104.63C389.01 103.55 389.83 102.74 389.83 101.92C389.83 101.1 389.83 100.84 389.56 100.57C389.56 100.29 389.01 99.76 388.2 99.49C385.728 97.9615 382.955 96.9859 380.07 96.63C376.854 96.1664 373.741 95.1515 370.87 93.63C368.241 92.3474 365.998 90.391 364.37 87.96C363.304 86.0575 362.749 83.911 362.76 81.73C362.756 79.5306 363.297 77.3644 364.336 75.4255C365.374 73.4866 366.877 71.8355 368.71 70.62C372.378 68.1197 376.721 66.7975 381.16 66.83C385.72 67.11 390.64 68.99 396.05 72.52"
            fill="#494C4D" />
    </g>
    <defs>
        <clipPath id="clip0_110_461">
            <rect width="368.69" height="125.59" fill="white" transform="translate(32 32)" />
        </clipPath>
    </defs>
</svg>
    