<svg width="113" height="51" viewBox="0 0 113 51" fill="none" xmlns="http://www.w3.org/2000/svg">
    <rect width="113" height="51" fill="#1DBF73" />
    <g clip-path="url(#clip0_386_69)">
        <path
            d="M93.6 25.1H90.5C88.5 25.1 87.4 26.6 87.4 29.2V38.5H81.4V25.1H78.9C76.9 25.1 75.8 26.6 75.8 29.2V38.5H69.8V20.1H75.8V22.9C76.8 20.7 78.1 20.1 80.1 20.1H87.4V22.9C88.4 20.7 89.7 20.1 91.7 20.1H93.7L93.6 25.1ZM68.4 30.7H56C56.3 32.8 57.6 33.9 59.7 33.9C61.3 33.9 62.4 33.2 62.8 32.1L68.1 33.6C66.8 36.8 63.6 38.7 59.7 38.7C53.2 38.7 50.2 33.6 50.2 29.2C50.2 24.9 52.8 19.8 59.3 19.8C66.2 19.8 68.5 25 68.5 28.9C68.5 29.8 68.5 30.3 68.4 30.7ZM62.7 27.2C62.6 25.6 61.4 24.2 59.4 24.2C57.5 24.2 56.4 25 56 27.2H62.7ZM39.8 38.5H45L51.6 20.2H45.6L42.4 30.9L39.2 20.1H33.2L39.8 38.5ZM15.4 38.5H21.3V25.1H27V38.5H32.9V20.1H21.3V19C21.3 17.8 22.2 17 23.5 17H27V12H22.6C18.3 12 15.4 14.7 15.4 18.6V20.1H12V25.1H15.4V38.5Z"
            fill="white" />
        <path
            d="M97.3001 39C99.3001 39 101 37.3 101 35.3C101 33.3 99.3001 31.6 97.3001 31.6C95.3001 31.6 93.6001 33.3 93.6001 35.3C93.6001 37.3 95.3001 39 97.3001 39Z"
            fill="white" />
    </g>
    <defs>
        <clipPath id="clip0_386_69">
            <rect width="89" height="27" fill="white" transform="translate(12 12)" />
        </clipPath>
    </defs>
</svg>