<svg width="126" height="52" viewBox="0 0 126 52" fill="none" xmlns="http://www.w3.org/2000/svg">
    <rect width="126" height="52" fill="#14A800" />
    <g clip-path="url(#clip0_386_82)">
        <path
            d="M40.1801 31.0599C39.1348 31.0017 38.1187 30.6934 37.2173 30.1609C36.3159 29.6285 35.5555 28.8874 35.0001 27.9999C35.6701 22.6599 37.6201 20.9999 40.2001 20.9999C42.7801 20.9999 44.7401 22.9999 44.7401 25.9999C44.7401 28.9999 42.7401 30.9999 40.2001 30.9999M40.2001 17.6599C38.3793 17.5862 36.5906 18.1547 35.1465 19.266C33.7025 20.3774 32.6949 21.961 32.3001 23.7399C31.4441 21.9465 30.7965 20.0609 30.3701 18.1199H24.0001V26.0199C24.0001 28.8899 22.7001 31.0199 20.1501 31.0199C17.6001 31.0199 16.1501 28.8999 16.1501 26.0199V18.1199H12.4901V26.0199C12.407 28.2091 13.1616 30.3476 14.6001 31.9999C15.3022 32.7644 16.1599 33.3697 17.1155 33.7751C18.0711 34.1804 19.1024 34.3764 20.1401 34.3499C24.5501 34.3499 27.6401 30.9599 27.6401 26.1099V20.7699C28.389 23.6434 29.6271 26.3666 31.3001 28.8199L29.3401 39.9999H33.0601L34.3501 32.0799C34.7771 32.4476 35.2318 32.7819 35.7101 33.0799C36.9528 33.8648 38.3812 34.3065 39.8501 34.3599H40.1901C41.2827 34.3713 42.3664 34.1615 43.3758 33.743C44.3853 33.3246 45.2996 32.7063 46.0638 31.9253C46.828 31.1442 47.4263 30.2167 47.8227 29.1984C48.219 28.1801 48.4052 27.0921 48.3701 25.9999C48.3956 24.9118 48.2021 23.8297 47.801 22.8178C47.4 21.8059 46.7996 20.885 46.0356 20.1098C45.2716 19.3346 44.3595 18.7209 43.3536 18.3052C42.3477 17.8895 41.2685 17.6803 40.1801 17.6899"
            fill="white" />
        <path
            d="M92.8002 19.86V18.18H89.2002V33.81H92.8502V27.69C92.8502 23.92 93.1902 21.21 98.2502 21.56V18C95.8902 17.82 94.0502 18.31 92.8002 19.87"
            fill="white" />
        <path
            d="M67.5098 18.17L64.8698 29.11L62.0498 18.17H57.4098L54.5898 29.11L51.9498 18.17H48.2598L52.3098 33.82H56.6898L59.7298 22.71L62.7398 33.82H67.1198L71.3998 18.17H67.5098Z"
            fill="white" />
        <path
            d="M79.4201 31.07C76.8301 31.07 74.8901 29.02 74.8901 26.07C74.8901 23.12 76.8901 21.07 79.4201 21.07C81.9501 21.07 84.0001 23 84.0001 26C84.0001 29 82.0001 31 79.4601 31M79.4601 17.65C78.3658 17.6346 77.2798 17.8411 76.2675 18.2571C75.2552 18.6731 74.3377 19.2899 73.5705 20.0702C72.8032 20.8506 72.202 21.7784 71.8032 22.7975C71.4044 23.8167 71.2162 24.9061 71.2501 26C71.2117 27.0976 71.3948 28.1917 71.7883 29.217C72.1818 30.2424 72.7778 31.178 73.5407 31.9681C74.3037 32.7581 75.2179 33.3865 76.2288 33.8156C77.2398 34.2448 78.3268 34.4659 79.4251 34.4659C80.5234 34.4659 81.6104 34.2448 82.6214 33.8156C83.6324 33.3865 84.5466 32.7581 85.3095 31.9681C86.0724 31.178 86.6684 30.2424 87.0619 29.217C87.4555 28.1917 87.6385 27.0976 87.6001 26C87.627 24.9123 87.4347 23.8304 87.0348 22.8186C86.6349 21.8068 86.0355 20.8858 85.2723 20.1104C84.509 19.335 83.5976 18.7212 82.5922 18.3054C81.5868 17.8895 80.5081 17.6802 79.4201 17.69"
            fill="white" />
        <path
            d="M103.47 26.13H104.31L109.4 33.82H113.51L107.66 25.29C109.067 24.7098 110.269 23.7237 111.113 22.4574C111.958 21.191 112.405 19.7019 112.4 18.18H108.77C108.77 21.55 106.11 22.83 103.47 22.83V12H99.8198V33.82H103.46L103.47 26.13Z"
            fill="white" />
    </g>
    <defs>
        <clipPath id="clip0_386_82">
            <rect width="102" height="28" fill="white" transform="translate(12 12)" />
        </clipPath>
    </defs>
</svg>