<svg width="522" height="156" viewBox="0 0 522 156" fill="none" xmlns="http://www.w3.org/2000/svg">
    <rect width="522" height="155.12" fill="white" />
    <path opacity="0.98"
        d="M77.56 36C54.614 36 36 54.615 36 77.56C36 100.505 54.614 119.12 77.56 119.12C100.505 119.12 119.12 100.506 119.12 77.56C119.12 54.614 100.505 36 77.56 36ZM75.394 110.874V84.805H60.903L81.724 44.245V70.314H95.674L75.394 110.874Z"
        fill="#009688" />
    <path
        d="M152.309 113.187V41.415H195.6V50.011H162.355V71.656H191.871V80.148H162.355V113.186H152.309V113.187ZM220.283 106.248L221.761 106.243C223.438 106.231 224.947 106.198 226.29 106.145C228.085 106.007 229.57 105.8 230.743 105.524V89.47C230.053 89.125 228.913 88.849 227.325 88.641C225.806 88.365 223.942 88.227 221.732 88.227C220.282 88.227 218.729 88.331 217.072 88.538C215.484 88.745 214 89.194 212.619 89.884C211.307 90.505 210.202 91.403 209.305 92.577C208.407 93.682 207.959 95.166 207.959 97.03C207.959 100.482 209.064 102.899 211.273 104.28C213.482 105.592 216.485 106.248 220.283 106.248ZM219.454 57.986C223.079 57.986 226.157 58.441 228.69 59.351L229.189 59.539C231.702 60.441 233.734 61.734 235.285 63.418L235.61 63.785C237.267 65.58 238.441 67.755 239.131 70.31C239.821 72.796 240.167 75.557 240.167 78.595V112.254L238.303 112.577C237.806 112.665 237.254 112.765 236.646 112.875L235.52 113.03C234.355 113.185 233.073 113.341 231.675 113.496C229.811 113.703 227.774 113.876 225.565 114.014C223.425 114.221 221.284 114.325 219.144 114.325C216.106 114.325 213.31 114.014 210.755 113.393C208.2 112.772 205.991 111.805 204.127 110.493C202.263 109.112 200.813 107.317 199.777 105.108C198.741 102.899 198.224 100.24 198.224 97.133C198.224 94.164 198.811 91.609 199.985 89.469C201.228 87.329 202.885 85.603 204.956 84.291C207.027 82.979 209.444 82.013 212.206 81.391C214.968 80.77 217.868 80.459 220.906 80.459C221.873 80.459 222.874 80.528 223.909 80.666C224.945 80.735 225.911 80.873 226.809 81.08L227.73 81.218C228.167 81.287 228.57 81.356 228.938 81.425L230.347 81.713C230.509 81.749 230.641 81.779 230.745 81.805V79.112C230.745 77.524 230.572 75.97 230.227 74.452C229.882 72.864 229.26 71.483 228.363 70.309C227.465 69.066 226.223 68.1 224.635 67.409C223.116 66.65 221.114 66.27 218.628 66.27C215.717 66.27 213.124 66.473 210.851 66.879L209.269 67.174C207.401 67.538 205.963 67.926 204.957 68.341L203.818 60.366C205.061 59.814 207.132 59.296 210.032 58.813C212.642 58.316 215.447 58.042 218.449 57.993L219.454 57.986ZM268.595 106.248C272.531 106.248 275.43 105.73 277.295 104.695C279.228 103.659 280.195 102.002 280.195 99.724C280.195 97.376 279.263 95.512 277.399 94.131C275.535 92.75 272.462 91.197 268.182 89.471C266.111 88.642 264.108 87.814 262.175 86.985C260.311 86.087 258.688 85.052 257.307 83.878C255.926 82.704 254.821 81.289 253.993 79.632C253.164 77.975 252.75 75.938 252.75 73.522C252.75 68.758 254.511 64.995 258.032 62.233C261.553 59.402 266.352 57.987 272.428 57.987C273.947 57.987 275.466 58.091 276.985 58.298C278.504 58.436 279.919 58.643 281.231 58.919C282.355 59.097 283.353 59.299 284.224 59.528L285.38 59.845C286.066 60.039 286.616 60.214 287.031 60.369L285.27 68.654C284.234 68.102 282.612 67.549 280.402 66.997C278.193 66.376 275.534 66.065 272.427 66.065C269.734 66.065 267.387 66.617 265.384 67.722C263.382 68.758 262.381 70.415 262.381 72.693C262.381 73.867 262.588 74.902 263.002 75.8C263.485 76.698 264.176 77.526 265.073 78.286C266.04 78.976 267.213 79.632 268.594 80.254C269.975 80.875 271.632 81.531 273.565 82.222C276.12 83.189 278.398 84.155 280.4 85.122C282.402 86.02 284.094 87.09 285.475 88.333C286.925 89.576 288.03 91.095 288.789 92.89C289.548 94.616 289.928 96.756 289.928 99.311C289.928 104.282 288.064 108.045 284.335 110.6C280.676 113.155 275.428 114.432 268.593 114.432C264.067 114.432 260.476 114.058 257.82 113.31L255.651 112.681C253.902 112.162 252.659 111.745 251.919 111.428L253.68 103.143L255.003 103.626C256.031 103.994 257.351 104.455 258.962 105.007C261.236 105.787 264.214 106.2 267.895 106.245L268.595 106.248ZM311.193 59.332H331.596V67.41H311.193V92.266C311.193 94.959 311.4 97.203 311.814 98.998C312.228 100.724 312.85 102.105 313.678 103.141C314.507 104.108 315.542 104.798 316.785 105.212C318.028 105.626 319.478 105.833 321.135 105.833C324.035 105.833 326.348 105.522 328.074 104.901L331.802 103.451L333.666 111.426C332.699 111.909 331.008 112.496 328.591 113.187C326.174 113.946 323.413 114.326 320.306 114.326C316.647 114.326 313.609 113.877 311.192 112.98C308.845 112.013 306.946 110.598 305.496 108.734C304.046 106.87 303.01 104.591 302.389 101.899C301.837 99.137 301.56 95.961 301.56 92.371V44.316L311.192 42.659V59.332H311.193ZM392.424 113.187C391.25 110.08 390.146 107.042 389.11 104.073C388.074 101.035 387.004 97.963 385.899 94.856H353.379L346.854 113.187H336.394L338.719 106.821C340.051 103.191 341.339 99.708 342.584 96.372L345.603 88.311C347.514 83.229 349.381 78.369 351.204 73.729C353.291 68.574 355.35 63.637 357.382 58.918L358.143 57.159C360.421 51.843 362.803 46.595 365.289 41.417H374.506C376.577 45.732 378.577 50.095 380.504 54.507L381.652 57.159C383.93 62.406 386.209 67.93 388.487 73.73C390.6 78.95 392.74 84.449 394.909 90.228L397.21 96.373C399.167 101.616 401.23 107.221 403.4 113.188L392.424 113.187ZM383 86.57C380.791 80.563 378.581 74.763 376.372 69.171C374.232 63.509 371.988 58.089 369.64 52.911C367.223 58.089 364.911 63.509 362.701 69.171C360.561 74.764 358.42 80.563 356.28 86.57H383ZM432.102 40.69C441.917 40.69 449.507 42.523 454.871 46.188L455.301 46.489C460.756 50.286 463.483 55.983 463.483 63.577C463.483 67.72 462.724 71.275 461.205 74.244C459.755 77.144 457.615 79.526 454.784 81.39C452.022 83.185 448.639 84.497 444.634 85.326C440.629 86.155 436.107 86.569 431.067 86.569H423.092V113.186H413.046V42.45C415.877 41.76 419.018 41.311 422.471 41.104C425.64 40.855 428.558 40.719 431.223 40.694L432.102 40.69ZM432.93 49.494L430.977 49.502C427.638 49.53 425.01 49.631 423.091 49.805V77.975H430.651C434.103 77.975 437.21 77.768 439.972 77.354C442.734 76.871 445.047 76.111 446.911 75.076C448.844 73.971 450.329 72.487 451.364 70.623C452.4 68.759 452.918 66.377 452.918 63.477C452.918 60.888 452.432 58.723 451.462 56.984L451.261 56.642C450.225 54.847 448.775 53.431 446.911 52.396C445.116 51.291 443.01 50.532 440.593 50.118C438.178 49.701 435.623 49.494 432.93 49.494ZM475.954 41.415H486V113.187H475.954V41.415Z"
        fill="#009688" />
</svg>
    