<svg width="450" height="84" viewBox="0 0 450 84" fill="none" xmlns="http://www.w3.org/2000/svg">
<path opacity="0.98" d="M41.56 0.440002C18.614 0.440002 0 19.055 0 42C0 64.945 18.614 83.56 41.56 83.56C64.505 83.56 83.12 64.946 83.12 42C83.12 19.054 64.505 0.440002 41.56 0.440002ZM39.394 75.314V49.245H24.903L45.724 8.685V34.754H59.674L39.394 75.314Z" fill="#009688"/>
<path d="M116.309 77.627V5.855H159.6V14.451H126.355V36.096H155.871V44.588H126.355V77.626H116.309V77.627ZM184.283 70.688L185.761 70.683C187.438 70.671 188.947 70.638 190.29 70.585C192.085 70.447 193.57 70.24 194.743 69.964V53.91C194.053 53.565 192.913 53.289 191.325 53.081C189.806 52.805 187.942 52.667 185.732 52.667C184.282 52.667 182.729 52.771 181.072 52.978C179.484 53.185 178 53.634 176.619 54.324C175.307 54.945 174.202 55.843 173.305 57.017C172.407 58.122 171.959 59.606 171.959 61.47C171.959 64.922 173.064 67.339 175.273 68.72C177.482 70.032 180.485 70.688 184.283 70.688ZM183.454 22.426C187.079 22.426 190.157 22.881 192.69 23.791L193.189 23.979C195.702 24.881 197.734 26.174 199.285 27.858L199.61 28.225C201.267 30.02 202.441 32.195 203.131 34.75C203.821 37.236 204.167 39.997 204.167 43.035V76.694L202.303 77.017C201.806 77.105 201.254 77.205 200.646 77.315L199.52 77.47C198.355 77.625 197.073 77.781 195.675 77.936C193.811 78.143 191.774 78.316 189.565 78.454C187.425 78.661 185.284 78.765 183.144 78.765C180.106 78.765 177.31 78.454 174.755 77.833C172.2 77.212 169.991 76.245 168.127 74.933C166.263 73.552 164.813 71.757 163.777 69.548C162.741 67.339 162.224 64.68 162.224 61.573C162.224 58.604 162.811 56.049 163.985 53.909C165.228 51.769 166.885 50.043 168.956 48.731C171.027 47.419 173.444 46.453 176.206 45.831C178.968 45.21 181.868 44.899 184.906 44.899C185.873 44.899 186.874 44.968 187.909 45.106C188.945 45.175 189.911 45.313 190.809 45.52L191.73 45.658C192.167 45.727 192.57 45.796 192.938 45.865L194.347 46.153C194.509 46.189 194.641 46.219 194.745 46.245V43.552C194.745 41.964 194.572 40.41 194.227 38.892C193.882 37.304 193.26 35.923 192.363 34.749C191.465 33.506 190.223 32.54 188.635 31.849C187.116 31.09 185.114 30.71 182.628 30.71C179.717 30.71 177.124 30.913 174.851 31.319L173.269 31.614C171.401 31.978 169.963 32.366 168.957 32.781L167.818 24.806C169.061 24.254 171.132 23.736 174.032 23.253C176.642 22.756 179.447 22.482 182.449 22.433L183.454 22.426ZM232.595 70.688C236.531 70.688 239.43 70.17 241.295 69.135C243.228 68.099 244.195 66.442 244.195 64.164C244.195 61.816 243.263 59.952 241.399 58.571C239.535 57.19 236.462 55.637 232.182 53.911C230.111 53.082 228.108 52.254 226.175 51.425C224.311 50.527 222.688 49.492 221.307 48.318C219.926 47.144 218.821 45.729 217.993 44.072C217.164 42.415 216.75 40.378 216.75 37.962C216.75 33.198 218.511 29.435 222.032 26.673C225.553 23.842 230.352 22.427 236.428 22.427C237.947 22.427 239.466 22.531 240.985 22.738C242.504 22.876 243.919 23.083 245.231 23.359C246.355 23.537 247.353 23.739 248.224 23.968L249.38 24.285C250.066 24.479 250.616 24.654 251.031 24.809L249.27 33.094C248.234 32.542 246.612 31.989 244.402 31.437C242.193 30.816 239.534 30.505 236.427 30.505C233.734 30.505 231.387 31.057 229.384 32.162C227.382 33.198 226.381 34.855 226.381 37.133C226.381 38.307 226.588 39.342 227.002 40.24C227.485 41.138 228.176 41.966 229.073 42.726C230.04 43.416 231.213 44.072 232.594 44.694C233.975 45.315 235.632 45.971 237.565 46.662C240.12 47.629 242.398 48.595 244.4 49.562C246.402 50.46 248.094 51.53 249.475 52.773C250.925 54.016 252.03 55.535 252.789 57.33C253.548 59.056 253.928 61.196 253.928 63.751C253.928 68.722 252.064 72.485 248.335 75.04C244.676 77.595 239.428 78.872 232.593 78.872C228.067 78.872 224.476 78.498 221.82 77.75L219.651 77.121C217.902 76.602 216.659 76.185 215.919 75.868L217.68 67.583L219.003 68.066C220.031 68.434 221.351 68.895 222.962 69.447C225.236 70.227 228.214 70.64 231.895 70.685L232.595 70.688ZM275.193 23.772H295.596V31.85H275.193V56.706C275.193 59.399 275.4 61.643 275.814 63.438C276.228 65.164 276.85 66.545 277.678 67.581C278.507 68.548 279.542 69.238 280.785 69.652C282.028 70.066 283.478 70.273 285.135 70.273C288.035 70.273 290.348 69.962 292.074 69.341L295.802 67.891L297.666 75.866C296.699 76.349 295.008 76.936 292.591 77.627C290.174 78.386 287.413 78.766 284.306 78.766C280.647 78.766 277.609 78.317 275.192 77.42C272.845 76.453 270.946 75.038 269.496 73.174C268.046 71.31 267.01 69.031 266.389 66.339C265.837 63.577 265.56 60.401 265.56 56.811V8.756L275.192 7.099V23.772H275.193ZM356.424 77.627C355.25 74.52 354.146 71.482 353.11 68.513C352.074 65.475 351.004 62.403 349.899 59.296H317.379L310.854 77.627H300.394L302.719 71.261C304.051 67.631 305.339 64.148 306.584 60.812L309.603 52.751C311.514 47.669 313.381 42.809 315.204 38.169C317.291 33.014 319.35 28.077 321.382 23.358L322.143 21.599C324.421 16.283 326.803 11.035 329.289 5.85699H338.506C340.577 10.172 342.577 14.535 344.504 18.947L345.652 21.599C347.93 26.846 350.209 32.37 352.487 38.17C354.6 43.39 356.74 48.889 358.909 54.668L361.21 60.813C363.167 66.056 365.23 71.661 367.4 77.628L356.424 77.627ZM347 51.01C344.791 45.003 342.581 39.203 340.372 33.611C338.232 27.949 335.988 22.529 333.64 17.351C331.223 22.529 328.911 27.949 326.701 33.611C324.561 39.204 322.42 45.003 320.28 51.01H347ZM396.102 5.13C405.917 5.13 413.507 6.96301 418.871 10.628L419.301 10.929C424.756 14.726 427.483 20.423 427.483 28.017C427.483 32.16 426.724 35.715 425.205 38.684C423.755 41.584 421.615 43.966 418.784 45.83C416.022 47.625 412.639 48.937 408.634 49.766C404.629 50.595 400.107 51.009 395.067 51.009H387.092V77.626H377.046V6.89C379.877 6.2 383.018 5.75101 386.471 5.54401C389.64 5.29501 392.558 5.159 395.223 5.134L396.102 5.13ZM396.93 13.934L394.977 13.942C391.638 13.97 389.01 14.071 387.091 14.245V42.415H394.651C398.103 42.415 401.21 42.208 403.972 41.794C406.734 41.311 409.047 40.551 410.911 39.516C412.844 38.411 414.329 36.927 415.364 35.063C416.4 33.199 416.918 30.817 416.918 27.917C416.918 25.328 416.432 23.163 415.462 21.424L415.261 21.082C414.225 19.287 412.775 17.871 410.911 16.836C409.116 15.731 407.01 14.972 404.593 14.558C402.178 14.141 399.623 13.934 396.93 13.934ZM439.954 5.855H450V77.627H439.954V5.855Z" fill="#009688"/>
</svg>
