<svg width="270" height="101" viewBox="0 0 270 101" fill="none" xmlns="http://www.w3.org/2000/svg">
    <rect width="270" height="101" fill="white" />
    <g clip-path="url(#clip0_110_461)">
        <path
            d="M25.9114 56.4388C29.1687 56.4388 31.8094 53.782 31.8094 50.5046C31.8094 47.2273 29.1687 44.5705 25.9114 44.5705C22.654 44.5705 20.0134 47.2273 20.0134 50.5046C20.0134 53.782 22.654 56.4388 25.9114 56.4388Z"
            fill="#FF6309" />
        <path
            d="M68.2035 81C71.4611 81 74.1019 78.343 74.1019 75.0654C74.1019 71.7878 71.4611 69.1309 68.2035 69.1309C64.946 69.1309 62.3052 71.7878 62.3052 75.0654C62.3052 78.343 64.946 81 68.2035 81Z"
            fill="#FFB515" />
        <path
            d="M68.1983 31.8683C71.4556 31.8683 74.0962 29.2115 74.0962 25.9342C74.0962 22.6568 71.4556 20 68.1983 20C64.9409 20 62.3003 22.6568 62.3003 25.9342C62.3003 29.2115 64.9409 31.8683 68.1983 31.8683Z"
            fill="#C90016" />
        <path
            d="M54.1052 35.8206C61.4495 35.8206 67.5427 41.3073 68.5519 48.4205H78.6565C78.1969 42.8312 75.8945 37.6214 72.0434 33.513C69.5771 34.7765 66.5444 34.8008 63.9684 33.3048C61.3904 31.8068 59.8947 29.1508 59.7513 26.367C57.9 25.9333 56.0053 25.7146 54.1044 25.7155C50.4173 25.7155 46.8542 26.5251 43.6138 28.0607L48.6737 36.8768C50.4002 36.1777 52.2442 35.8191 54.1052 35.8206Z"
            fill="#FF6309" />
        <path
            d="M39.5114 50.5047C39.5114 45.8264 41.6969 41.653 45.094 38.9622L40.0361 30.1472C38.8379 30.9896 37.7156 31.9361 36.6819 32.9759C33.7548 35.9209 31.6557 39.4767 30.5007 43.3575C32.828 44.8741 34.3691 47.5071 34.3691 50.5047C34.3691 53.5015 32.828 56.1349 30.5007 57.651C31.6557 61.5318 33.7548 65.0872 36.6819 68.0331C37.7148 69.0723 38.8362 70.0186 40.0333 70.8609L45.092 62.0448C41.6957 59.3544 39.5114 55.1813 39.5114 50.5047Z"
            fill="#FFB515" />
        <path
            d="M68.5522 52.5818C67.5458 59.6975 61.4514 65.1878 54.1051 65.1878C52.1856 65.1878 50.3513 64.8119 48.6716 64.1308L43.6121 72.9474C46.8517 74.4838 50.4168 75.2938 54.1047 75.2938C56.0315 75.2938 57.9249 75.0703 59.7556 74.6414C59.8967 71.854 61.3923 69.1931 63.9723 67.6943C66.5491 66.1975 69.583 66.221 72.0493 67.4874C75.8968 63.3782 78.1976 58.1692 78.6552 52.5818H68.5522Z"
            fill="#C90016" />
        <path
            d="M115.423 50.4076V38.986C115.423 37.2556 114.046 35.8708 112.326 35.8708C110.606 35.8708 109.231 37.2552 109.231 38.986V50.4076C109.231 54.5605 107.51 55.9457 104.414 55.9457C101.319 55.9457 99.5988 54.5605 99.5988 50.4076V38.986C99.5988 37.2556 98.2228 35.8708 96.503 35.8708C94.7831 35.8708 93.4067 37.2552 93.4067 38.986V50.4076C93.4067 58.7141 98.2228 62.1753 104.414 62.1753C110.606 62.1753 115.423 58.7141 115.423 50.4076ZM144.319 50.4076C144.319 38.64 139.503 35.8708 133.311 35.8708C130.215 35.8708 128.495 37.2552 128.495 37.2552V29.2947C128.495 25.1415 122.303 25.1415 122.303 29.2947V50.4076C122.303 58.7141 127.119 62.1753 133.311 62.1753C139.503 62.1753 144.319 58.7141 144.319 50.4076ZM128.494 49.7152C128.494 42.4472 131.934 41.7548 133.311 41.7548C135.375 41.7548 138.126 43.4856 138.126 49.7152C138.126 53.868 136.406 56.6377 133.311 56.6377C130.214 56.6381 128.494 53.868 128.494 49.7152ZM249.987 50.4076V38.986C249.987 37.2556 248.61 35.8708 246.89 35.8708C245.171 35.8708 243.795 37.2552 243.795 38.986V50.4076C243.795 54.5605 242.075 55.9457 238.979 55.9457C235.883 55.9457 234.163 54.5605 234.163 50.4076V38.986C234.165 38.5764 234.086 38.1706 233.931 37.7919C233.776 37.4132 233.548 37.0691 233.26 36.7795C232.972 36.4899 232.63 36.2605 232.254 36.1045C231.877 35.9485 231.474 35.8691 231.067 35.8708C230.66 35.869 230.257 35.9485 229.88 36.1044C229.504 36.2604 229.162 36.4898 228.874 36.7794C228.586 37.069 228.358 37.4131 228.203 37.7918C228.048 38.1706 227.969 38.5764 227.971 38.986V50.4076C227.971 58.7141 232.787 62.1753 238.979 62.1753C245.171 62.1753 249.987 58.7141 249.987 50.4076ZM171.801 50.408V38.9864C171.801 37.256 170.424 35.8716 168.704 35.8716C166.984 35.8716 165.609 37.256 165.609 38.9864V50.408C165.609 54.5609 163.889 55.9453 160.792 55.9453C157.697 55.9453 155.977 54.5609 155.977 50.408V38.9864C155.977 37.256 154.601 35.8716 152.881 35.8716C151.161 35.8716 149.785 37.256 149.785 38.9864V50.408C149.785 58.7145 154.601 62.1753 160.792 62.1753C166.984 62.1753 171.801 58.7145 171.801 50.408ZM208.136 35.8708C204.352 35.8708 204.352 41.4088 208.136 41.4088H209.168V53.4533C209.168 60.0302 210.784 62.1753 216.358 62.1753C219.041 62.1753 222.962 61.6911 222.962 58.9214C222.962 57.1914 221.38 56.7407 220.932 56.7407C219.969 56.7407 218.971 57.1559 217.871 57.1559C215.944 57.1559 215.359 56.1874 215.359 52.9339V41.4088H218.112C221.896 41.4088 221.896 35.8708 218.112 35.8708H215.359V29.2947C215.359 25.1415 209.168 25.1415 209.168 29.2947V35.8708H208.136ZM178.206 47.6384V59.0601C178.204 59.4696 178.283 59.8754 178.438 60.2542C178.593 60.6329 178.821 60.9769 179.108 61.2665C179.396 61.5562 179.738 61.7856 180.115 61.9415C180.491 62.0975 180.894 62.177 181.301 62.1753C181.708 62.177 182.112 62.0975 182.488 61.9415C182.864 61.7856 183.206 61.5562 183.494 61.2665C183.782 60.9769 184.01 60.6329 184.165 60.2542C184.32 59.8754 184.399 59.4696 184.397 59.0601V47.6384C184.397 43.4856 186.117 42.1004 189.213 42.1004C192.309 42.1004 194.029 43.4856 194.029 47.6384V59.0601C194.029 60.7905 195.405 62.1753 197.125 62.1753C198.845 62.1753 200.221 60.7909 200.221 59.0601V47.6384C200.221 39.332 195.405 35.8708 189.213 35.8708C183.021 35.8708 178.206 39.3324 178.206 47.6384Z"
            fill="black" />
    </g>
    <defs>
        <clipPath id="clip0_110_461">
            <rect width="230" height="61" fill="white" transform="translate(20 20)" />
        </clipPath>
    </defs>
</svg>
    