<svg width="130" height="69" viewBox="0 0 130 69" fill="none" xmlns="http://www.w3.org/2000/svg">
    <rect width="129.485" height="68.404" fill="white" />
    <path fill-rule="evenodd" clip-rule="evenodd"
        d="M48.1572 21.0611L34.135 12.7378C32.4746 11.7541 30.4098 11.7541 28.7494 12.7378L14.7272 21.0611C13.0311 22.0727 11.9945 23.904 12.0001 25.8788V42.5253C11.9894 44.4951 13.016 46.3253 14.7027 47.3429L28.7249 55.6662C30.3853 56.65 32.4501 56.65 34.1105 55.6662L48.1328 47.3429C49.8194 46.3253 50.8461 44.4951 50.8354 42.5253V25.8788C50.8512 23.9138 49.8345 22.0848 48.1572 21.0611ZM37.2978 47.0541V48.2487C37.296 48.398 37.2186 48.5363 37.0922 48.6159L36.3823 49.0223C36.2697 49.081 36.1767 49.0223 36.1767 48.8656V47.6906C35.6749 47.9369 35.1007 47.9926 34.561 47.8472C34.4745 47.7896 34.4415 47.6783 34.4826 47.5828L34.7372 46.5008C34.759 46.4096 34.8086 46.3275 34.8792 46.2658C34.8995 46.2462 34.9226 46.2297 34.9478 46.2169C34.9837 46.2013 35.0244 46.2013 35.0604 46.2169C35.5555 46.3494 36.0828 46.2826 36.5292 46.0308C37.1754 45.7149 37.5965 45.0702 37.6259 44.3515C37.6259 43.7444 37.293 43.4898 36.49 43.4849C35.4716 43.4849 34.5316 43.289 34.5071 41.786C34.5308 40.4862 35.1342 39.2651 36.1522 38.4567V37.2473C36.1515 37.096 36.2293 36.9552 36.3578 36.8752L37.0433 36.4395C37.1559 36.3807 37.2489 36.4395 37.2489 36.6011V37.8104C37.6686 37.6192 38.1373 37.5628 38.5904 37.6488C38.6882 37.7045 38.7266 37.8261 38.6785 37.9279L38.4386 39.0001C38.4183 39.0818 38.376 39.1563 38.3162 39.2155C38.2963 39.2369 38.2732 39.2551 38.2477 39.2694C38.2143 39.2806 38.1782 39.2806 38.1449 39.2694C37.7029 39.1725 37.2407 39.2478 36.8523 39.4799C36.2748 39.7298 35.8934 40.2905 35.8731 40.9194C35.8731 41.4677 36.162 41.6342 37.1314 41.6538C38.4288 41.6538 38.987 42.2413 39.0017 43.5436C38.9771 44.9073 38.354 46.1911 37.2978 47.0541ZM44.6419 45.0418C44.6591 45.1446 44.6176 45.2485 44.5342 45.3111L40.9895 47.4653C40.9555 47.4942 40.9068 47.4979 40.8688 47.4745C40.8309 47.4511 40.8124 47.4059 40.823 47.3626V46.447C40.8277 46.3466 40.891 46.2584 40.9846 46.2218L44.4754 44.1312C44.5094 44.1023 44.5581 44.0986 44.5961 44.122C44.634 44.1454 44.6525 44.1906 44.6419 44.234V45.0418ZM47.0899 24.5715L33.8217 32.7675C32.1668 33.7467 30.9477 34.8189 30.9477 36.8116V53.1545C30.9477 54.3492 31.4373 55.1129 32.1717 55.3479C31.9295 55.3935 31.6838 55.418 31.4373 55.4214C30.6581 55.4196 29.8937 55.2082 29.2243 54.8094L15.2021 46.4861C13.8173 45.6475 12.9737 44.1442 12.9793 42.5253V25.8788C12.972 24.2581 13.8158 22.7525 15.2021 21.913L29.2243 13.5897C30.5829 12.785 32.2721 12.785 33.6307 13.5897L47.6529 21.913C48.8085 22.6122 49.5968 23.7857 49.8072 25.1199C49.3519 24.1309 48.3041 23.8567 47.085 24.5715H47.0899Z"
        fill="#1B1B1F" />
    <path fill-rule="evenodd" clip-rule="evenodd"
        d="M68.9949 34.8483C68.6391 34.4201 68.2157 34.053 67.7415 33.7614L67.5604 33.6536C67.9394 33.4013 68.2821 33.0982 68.5787 32.7528C69.233 31.9888 69.594 31.0169 69.5971 30.011C69.6272 29.1437 69.4226 28.2844 69.0047 27.5238C68.6107 26.8378 68.0626 26.2528 67.4037 25.8151C66.7282 25.3633 65.9794 25.0319 65.1907 24.8359C64.3896 24.637 63.5681 24.5319 62.7427 24.5226H57.122C56.9356 24.5173 56.7549 24.5877 56.6212 24.7177C56.4874 24.8477 56.412 25.0264 56.4121 25.2129V43.1715C56.416 43.3555 56.4931 43.5303 56.6264 43.6572C56.7597 43.784 56.9381 43.8524 57.122 43.8472H63.1686C64.0313 43.84 64.8886 43.7097 65.7146 43.4604C66.5159 43.2218 67.2697 42.8457 67.9422 42.349C68.5976 41.8623 69.1375 41.2371 69.5237 40.5179C69.9299 39.7391 70.1305 38.8695 70.1063 37.9915C70.1098 37.4075 70.0104 36.8274 69.8125 36.2779C69.6233 35.7583 69.3468 35.2749 68.9949 34.8483ZM65.5677 30.9021C65.4099 31.1725 65.1962 31.4062 64.941 31.5875C64.6569 31.7892 64.3407 31.9415 64.0058 32.038C63.6447 32.1444 63.2709 32.202 62.8944 32.2093H60.2408V27.8519H62.7965C63.2039 27.8584 63.6094 27.9093 64.0058 28.0036C64.3433 28.0789 64.6649 28.2131 64.9557 28.4002C65.2024 28.562 65.4072 28.7802 65.553 29.0367C65.7124 29.3376 65.7885 29.6757 65.7733 30.0159C65.7778 30.3244 65.7001 30.6286 65.5481 30.8972L65.5677 30.9021ZM60.2604 35.4554H63.3498C63.7626 35.466 64.1717 35.5369 64.564 35.6659C64.8987 35.7702 65.2109 35.9362 65.4844 36.1555C65.7366 36.3665 65.9389 36.6307 66.0769 36.9291C66.2267 37.2695 66.297 37.6395 66.2825 38.0111C66.2908 38.3737 66.2118 38.733 66.0524 39.0589C65.8995 39.3602 65.6822 39.6243 65.4159 39.8324C65.1212 40.0596 64.7901 40.2351 64.4367 40.3514C64.0529 40.4794 63.6515 40.5471 63.247 40.5521H60.2604V35.4505V35.4554Z"
        fill="#1B1B1F" />
    <path fill-rule="evenodd" clip-rule="evenodd"
        d="M80.6474 25.022C80.5533 24.7287 80.2797 24.5305 79.9717 24.5324H77.9643C77.6564 24.5305 77.3828 24.7287 77.2887 25.022L71.1931 42.9659C71.1244 43.1712 71.163 43.3973 71.296 43.5681C71.4331 43.7452 71.6448 43.8484 71.8688 43.8472H74.2678C74.5758 43.8491 74.8494 43.6508 74.9435 43.3576L76.3046 39.1862H81.558L82.8946 43.3576C82.9893 43.6526 83.2654 43.8512 83.5752 43.8472H85.9595C86.1825 43.8488 86.3938 43.7477 86.5324 43.573C86.6654 43.4022 86.704 43.1761 86.6352 42.9708L80.6474 25.022ZM80.4907 35.8667H77.3915L78.9533 31.0539L80.4907 35.8667Z"
        fill="#1B1B1F" />
    <path fill-rule="evenodd" clip-rule="evenodd"
        d="M101.044 35.5386C100.719 35.1223 100.34 34.7504 99.9182 34.4321C99.4984 34.115 99.0529 33.8333 98.5865 33.59C98.1107 33.3444 97.6202 33.1286 97.1177 32.9437C96.6281 32.7626 96.1385 32.601 95.6489 32.4541C95.2327 32.3317 94.7872 32.1897 94.3269 32.0331C93.9104 31.8912 93.51 31.7057 93.1323 31.4798C92.8154 31.2936 92.5377 31.0475 92.3147 30.7552C92.1232 30.487 92.0236 30.1642 92.0307 29.8348C92.0208 29.5075 92.0968 29.1835 92.251 28.8947C92.4046 28.6214 92.6169 28.3856 92.8728 28.2044C93.1575 28.0018 93.4758 27.8509 93.8129 27.7588C94.6057 27.5317 95.4485 27.5488 96.2315 27.8078C96.5858 27.9294 96.9121 28.1209 97.1911 28.3708C97.4581 28.6209 97.6742 28.9201 97.8276 29.2521C98.0048 29.6384 98.1221 30.0495 98.1752 30.4712C98.2312 30.8153 98.5317 31.0657 98.8802 31.0588H101.328C101.511 31.0555 101.686 30.9839 101.818 30.858C101.951 30.7302 102.023 30.5526 102.019 30.3684C102.01 29.4899 101.794 28.6258 101.387 27.847C100.994 27.1064 100.452 26.4548 99.7958 25.9326C99.1313 25.4054 98.381 24.9964 97.5779 24.7233C95.946 24.1805 94.186 24.1566 92.5399 24.6548C91.7514 24.8765 91.0063 25.2308 90.3367 25.7025C89.6892 26.1682 89.1457 26.7634 88.7406 27.4504C88.3187 28.1787 88.1021 29.0078 88.1139 29.8494C88.0971 30.6806 88.3179 31.4993 88.7504 32.2093C89.1668 32.8696 89.7052 33.4445 90.3367 33.9033C90.9654 34.3657 91.6476 34.7503 92.3685 35.049C93.0736 35.3477 93.7786 35.6023 94.464 35.8128C94.9145 35.9499 95.3828 36.1033 95.8692 36.273C96.2973 36.4196 96.7079 36.6134 97.0932 36.8508C97.4154 37.0463 97.6938 37.3063 97.9108 37.6145C98.1078 37.9166 98.2054 38.2726 98.1899 38.6329C98.2026 38.9591 98.121 39.2821 97.9549 39.5632C97.7849 39.8356 97.5577 40.0678 97.289 40.2437C96.9889 40.4375 96.6577 40.5783 96.3098 40.6599C95.4489 40.8712 94.5478 40.8543 93.6954 40.6109C93.3034 40.4955 92.9364 40.3078 92.6133 40.0577C92.3039 39.8119 92.046 39.5074 91.8544 39.1617C91.6432 38.771 91.507 38.3442 91.453 37.9034C91.397 37.5594 91.0964 37.3089 90.7479 37.3159H88.2999C88.1167 37.3205 87.9419 37.3939 87.8103 37.5215C87.6777 37.6493 87.6048 37.827 87.6096 38.0111C87.6248 38.9254 87.8743 39.8205 88.3342 40.6109C88.7761 41.3572 89.3659 42.0053 90.0674 42.5155C90.7877 43.0371 91.5903 43.4343 92.442 43.6905C93.3098 43.9566 94.2124 44.0919 95.1201 44.092C95.9469 44.0901 96.7699 43.9798 97.5681 43.7639C98.3625 43.5621 99.1183 43.2313 99.8056 42.7847C100.474 42.3411 101.039 41.7603 101.465 41.0809C101.915 40.3447 102.146 39.4956 102.131 38.6329C102.137 38.0611 102.043 37.4928 101.852 36.9536C101.661 36.4415 101.388 35.9638 101.044 35.5386Z"
        fill="#1B1B1F" />
    <path fill-rule="evenodd" clip-rule="evenodd"
        d="M116.775 24.5519H114.508C114.325 24.5439 114.146 24.6092 114.011 24.7332C113.876 24.8572 113.796 25.0297 113.788 25.2129V32.2681H107.473V25.2129C107.469 25.0289 107.392 24.8541 107.258 24.7272C107.125 24.6004 106.947 24.532 106.763 24.5372H104.506C104.322 24.5319 104.143 24.6004 104.01 24.7272C103.877 24.8541 103.799 25.0289 103.796 25.2129V43.1715C103.799 43.3555 103.877 43.5303 104.01 43.6572C104.143 43.784 104.322 43.8524 104.506 43.8472H106.763C106.947 43.8525 107.125 43.784 107.258 43.6572C107.392 43.5303 107.469 43.3555 107.473 43.1715V35.5484H113.788V43.1715C113.792 43.3555 113.869 43.5303 114.003 43.6572C114.136 43.784 114.314 43.8524 114.498 43.8472H116.775C116.959 43.8525 117.137 43.784 117.271 43.6572C117.404 43.5303 117.481 43.3555 117.485 43.1715V25.2129C117.469 24.8354 117.153 24.5409 116.775 24.5519Z"
        fill="#1B1B1F" />
</svg>
    