<svg width="140" height="49" viewBox="0 0 140 49" fill="none" xmlns="http://www.w3.org/2000/svg">
    <g clip-path="url(#clip0_112_609)">
        <path d="M139.119 0H0V48.1873H139.119V0Z" fill="white" />
        <mask id="mask0_112_609" style="mask-type:luminance" maskUnits="userSpaceOnUse" x="12"
            y="12" width="116" height="25">
            <path d="M127.119 12H12V36.1873H127.119V12Z" fill="white" />
        </mask>
        <g mask="url(#mask0_112_609)">
            <path d="M14.4856 33.6034V14.5387L33.5481 33.6034V14.5387" stroke="#009900"
                stroke-width="5" stroke-linecap="round" stroke-linejoin="round" />
            <path
                d="M45.1252 12.0633L44.4377 13.3445L39.1252 23.0008L38.4377 24.2195L39.1252 25.4383L44.4377 34.782L45.1565 36.0633H46.6252H57.5002H59.0627L59.7502 34.657L63.719 26.657L65.5002 23.032H61.469L51.3127 23.0633C49.992 23.0446 48.7771 24.2424 48.7771 25.5633C48.7771 26.8842 49.992 28.082 51.3127 28.0633L57.4377 28.032L55.9377 31.0633H48.0627L44.1565 24.1883L48.094 17.0633H56.4712L58.4243 21.0711H63.4556L60.2837 13.4695L59.5962 12.0633H58.0337H46.6252H45.1252Z"
                fill="#009900" />
            <path
                d="M70.4516 12.032C69.1426 12.0484 67.9665 13.2543 67.9828 14.5633V21.0778H72.9828V14.5633C72.9994 13.2335 71.7814 12.0154 70.4516 12.032Z"
                fill="#009900" />
            <path d="M97.5291 33.6518V14.5871L78.4666 33.6518V14.5871" stroke="#009900"
                stroke-width="5" stroke-linecap="round" stroke-linejoin="round" />
            <path d="M105.453 14.5801L124.538 33.5979" stroke="#009900" stroke-width="5"
                stroke-linecap="round" stroke-linejoin="round" />
            <path d="M124.56 14.5801L105.475 33.5979" stroke="#009900" stroke-width="5"
                stroke-linecap="round" stroke-linejoin="round" />
            <path
                d="M70.4516 36.0798C69.1426 36.0634 67.9665 34.8576 67.9828 33.5486V23.0842H72.9828V33.5486C72.9994 34.8784 71.7814 36.0964 70.4516 36.0798Z"
                fill="#009900" />
        </g>
    </g>
    <defs>
        <clipPath id="clip0_112_609">
            <rect width="140" height="49" fill="white" />
        </clipPath>
    </defs>
</svg>
    